<svg width="24" height="24" viewBox="0 0 24 24" fill="none" xmlns="http://www.w3.org/2000/svg">
<path d="M0 12C0 5.37258 5.37258 0 12 0C18.6274 0 24 5.37258 24 12C24 18.6274 18.6274 24 12 24C5.37258 24 0 18.6274 0 12Z" fill="#2C374B"/>
<path d="M13.7522 13.7471L12.9332 15.9944C12.9129 16.0554 12.9129 16.123 12.9332 16.1907L14.3411 20.0558L15.9725 19.1149L14.0162 13.7471C13.9688 13.6253 13.7996 13.6253 13.7522 13.7471Z" fill="white"/>
<path d="M15.3971 9.97029C15.3497 9.84845 15.1805 9.84845 15.1331 9.97029L14.3141 12.2176C14.2938 12.2785 14.2938 12.3462 14.3141 12.4139L16.6223 18.7429L18.2536 17.802L15.3971 9.97706V9.97029Z" fill="white"/>
<path d="M12.5 5.04919C12.5406 5.04919 12.5812 5.06273 12.6151 5.08303L18.829 8.67058C18.9034 8.71119 18.944 8.79242 18.944 8.87365V16.0487C18.944 16.13 18.8967 16.2112 18.829 16.2518L12.6151 19.8393C12.5812 19.8597 12.5406 19.8732 12.5 19.8732C12.4594 19.8732 12.4188 19.8597 12.3849 19.8393L6.17103 16.2518C6.09657 16.2112 6.05596 16.13 6.05596 16.0487V8.86688C6.05596 8.78565 6.10334 8.70442 6.17103 8.66381L12.3849 5.07626C12.4188 5.05596 12.4594 5.04242 12.5 5.04242V5.04919ZM12.5 4C12.2766 4 12.06 4.05415 11.8569 4.16922L5.64305 7.75677C5.24368 7.98691 5 8.40659 5 8.86688V16.042C5 16.5023 5.24368 16.9219 5.64305 17.1521L11.8569 20.7396C12.0532 20.8547 12.2766 20.9088 12.5 20.9088C12.7234 20.9088 12.94 20.8547 13.1431 20.7396L19.3569 17.1521C19.7563 16.9219 20 16.5023 20 16.042V8.86688C20 8.40659 19.7563 7.98691 19.3569 7.75677L13.1363 4.16922C12.94 4.05415 12.7166 4 12.4932 4H12.5Z" fill="white"/>
<path d="M11.9715 8.35919H10.3944C10.2793 8.35919 10.171 8.43364 10.1304 8.54195L6.75269 17.8019L8.384 18.7428L12.1069 8.54195C12.1408 8.44718 12.0731 8.35242 11.9783 8.35242L11.9715 8.35919Z" fill="white"/>
<path d="M14.7336 8.35919H13.1565C13.0414 8.35919 12.9331 8.43364 12.8925 8.54195L9.03418 19.1151L10.6655 20.0559L14.8622 8.54195C14.8961 8.44718 14.8284 8.35242 14.7336 8.35242V8.35919Z" fill="white"/>
</svg>
