<svg width="24" height="24" viewBox="0 0 24 24" fill="none" xmlns="http://www.w3.org/2000/svg">
<path d="M0 12C0 5.37258 5.37258 0 12 0C18.6274 0 24 5.37258 24 12C24 18.6274 18.6274 24 12 24C5.37258 24 0 18.6274 0 12Z" fill="#0052FF"/>
<path d="M12.015 16.0005C9.80086 16.0005 8.00798 14.21 8.00798 12C8.00798 9.78997 9.80177 8.00046 12.015 8.00046C13.9985 8.00046 15.6455 9.44408 15.9628 11.3337H20C19.6589 7.22676 16.2164 4 12.015 4C7.59031 4 4 7.58357 4 12C4 16.4164 7.59031 20 12.015 20C16.2164 20 19.6598 16.7732 20 12.6663H15.9592C15.6418 14.5568 13.9985 16.0005 12.015 16.0005Z" fill="white"/>
</svg>
