<svg width="28" height="28" viewBox="0 0 28 28" fill="none" xmlns="http://www.w3.org/2000/svg">
<rect x="0.5" y="0.5" width="27" height="27" rx="13.5" fill="#7AE99D"/>
<rect x="0.5" y="0.5" width="27" height="27" rx="13.5" stroke="#7AE99D"/>
<path d="M12.2807 17.6063C12.2746 17.6063 12.2868 17.6063 12.2807 17.6063L15.7009 17.6063C18.3234 17.6063 20.4494 15.424 20.4494 12.732C20.4494 10.2474 18.6337 8.19702 16.2921 7.89576C15.9361 7.84996 15.6143 8.08875 15.493 8.4353L14.727 10.6222H15.7009C16.836 10.6222 17.7562 11.5668 17.7562 12.732C17.7562 13.8972 16.836 14.8418 15.7009 14.8418H13.847C13.4883 14.8418 13.1681 15.0729 13.0467 15.4194L12.2807 17.6063Z" fill="black"/>
<path d="M14.727 10.6222H12.299C9.67651 10.6222 7.55054 12.8045 7.55054 15.4965C7.55054 17.5895 8.83556 19.3743 10.6399 20.0651C11.0357 20.2166 11.4527 19.9701 11.5957 19.5621L12.2807 17.6063C11.154 17.5962 10.2437 16.6555 10.2437 15.4965C10.2437 14.3313 11.1639 13.3867 12.299 13.3867H13.1607C13.5195 13.3867 13.8396 13.1557 13.961 12.8091L14.727 10.6222Z" fill="black"/>
</svg>
