<svg width="48" height="48" viewBox="0 0 48 48" fill="none" xmlns="http://www.w3.org/2000/svg">
<path d="M3.50957 20.4562L4.19069 19.587L12.8443 19.5829L12.2871 20.4521L3.50957 20.4562ZM11.358 22.5942L11.6451 21.7251L0.681127 21.7327L0 22.6018L11.358 22.5942ZM11.043 24.7398L11.1258 23.8707L6.13865 23.8748L5.65461 24.7439L11.043 24.7398ZM42.8525 31.5461C38.0544 34.1892 31.499 33.0698 29.7464 27.339C28.7106 29.3772 27.0195 31.0478 25.0042 32.0004C20.2292 34.2574 13.7462 32.2892 12.9124 26.1038C12.3018 20.1753 17.1001 16.5119 19.9366 15.5869C24.4445 14.1827 28.8905 15.8328 30.4279 19.9395L25.5856 21.2087C25.0712 19.777 22.2751 18.746 20.1258 20.3C16.7454 22.3856 16.8079 27.6342 20.892 28.4136C23.0124 28.6854 24.4367 27.6377 25.5045 26.0261L20.2463 26.0374L21.9358 22.3942H29.8161C33.2292 12.7655 46.5403 13.1871 47.8932 21.8393C48.374 24.9144 47.3242 29.0828 42.8525 31.5461ZM38.4794 19.6331C34.8362 20.4171 33.9282 23.6353 34.4905 25.6972C35.089 27.8916 37.4071 29.3304 40.3482 27.9544C45.062 25.7491 43.8264 18.4826 38.4794 19.6331Z" fill="#4BA4CC"/>
</svg>
