<svg width="49" height="48" viewBox="0 0 49 48" fill="none" xmlns="http://www.w3.org/2000/svg">
<path d="M6.5 42V6H42.5V42H6.5Z" fill="#F4DD5D"/>
<path d="M30.038 32.947C30.73 34.071 31.482 35.148 33.075 35.148C34.413 35.148 35.115 34.483 35.115 33.563C35.115 32.462 34.389 32.071 32.917 31.43L32.11 31.086C29.781 30.098 28.232 28.86 28.232 26.245C28.232 23.835 30.077 22.001 32.96 22.001C35.013 22.001 36.488 22.712 37.552 24.574L35.038 26.181C34.485 25.193 33.887 24.804 32.96 24.804C32.014 24.804 31.415 25.401 31.415 26.181C31.415 27.145 32.015 27.535 33.4 28.132L34.207 28.476C36.952 29.645 38.5 30.839 38.5 33.523C38.5 36.415 36.216 38 33.15 38C30.151 38 28.448 36.495 27.5 34.632L30.038 32.947ZM18.452 33.029C18.958 33.935 19.727 34.632 20.833 34.632C21.891 34.632 22.5 34.214 22.5 32.589V22H25.833V33.101C25.833 36.468 23.88 38 21.028 38C18.451 38 16.591 36.254 15.833 34.632L18.452 33.029Z" fill="white"/>
</svg>
