<svg width="49" height="48" viewBox="0 0 49 48" fill="none" xmlns="http://www.w3.org/2000/svg">
<path d="M24.547 5.00007C22.992 5.00507 21.9139 5.14207 20.611 5.36707C16.763 6.03707 16.062 7.44407 16.062 10.0371V14.0001H25.062V16.0001H15.72H11.37C8.73395 16.0001 6.42695 17.2421 5.69595 20.2191C4.86995 23.6361 4.83295 25.7761 5.69595 29.3441C6.35095 32.0051 7.79395 34.0001 10.431 34.0001H14.063V28.8961C14.063 25.9301 16.749 23.0001 19.827 23.0001H27.063C29.586 23.0001 32.063 21.1381 32.063 18.6231V10.0371C32.063 7.59807 30.3039 5.77407 27.8449 5.36507C27.906 5.35907 26.089 4.99407 24.547 5.00007ZM19.563 9.00007C20.384 9.00007 21.063 9.67707 21.063 10.5021C21.063 11.3351 20.384 12.0001 19.563 12.0001C18.726 12.0001 18.063 11.3361 18.063 10.5021C18.063 9.68007 18.726 9.00007 19.563 9.00007Z" fill="#3375B7"/>
<path d="M23.578 43C25.133 42.995 26.211 42.858 27.514 42.633C31.362 41.963 32.063 40.556 32.063 37.963V34H23.063V32H32.406H36.756C39.392 32 41.699 30.758 42.43 27.781C43.256 24.364 43.293 22.224 42.43 18.656C41.774 15.995 40.331 14 37.694 14H34.062V19.104C34.062 22.07 31.376 25 28.298 25H21.062C18.539 25 16.062 26.862 16.062 29.377V37.963C16.062 40.402 17.821 42.226 20.28 42.635C20.219 42.641 22.036 43.006 23.578 43ZM28.563 39C27.742 39 27.063 38.323 27.063 37.498C27.063 36.665 27.742 36 28.563 36C29.4 36 30.063 36.664 30.063 37.498C30.063 38.32 29.399 39 28.563 39Z" fill="#F4C244"/>
</svg>
