<svg width="48" height="48" viewBox="0 0 48 48" fill="none" xmlns="http://www.w3.org/2000/svg">
<path d="M44.6999 23.4932L42.9389 22.4042C42.9389 22.2332 42.9089 22.0622 42.8879 21.8912L44.3879 20.4782C44.4651 20.4086 44.5229 20.3202 44.5556 20.2215C44.5883 20.1229 44.5949 20.0175 44.5746 19.9156C44.5544 19.8137 44.508 19.7188 44.44 19.6402C44.3721 19.5616 44.2848 19.5019 44.1869 19.4672L42.2519 18.7442C42.2039 18.5762 42.1529 18.4112 42.1019 18.2432L43.3019 16.5662C43.3655 16.4812 43.4053 16.3809 43.4174 16.2755C43.4295 16.1701 43.4135 16.0634 43.3709 15.9662C43.3332 15.8725 43.2725 15.7898 43.1944 15.7258C43.1162 15.6618 43.0232 15.6186 42.9239 15.6002L40.8839 15.2672C40.8059 15.1112 40.7219 14.9672 40.6379 14.8082L41.4959 12.9242C41.5408 12.8303 41.5605 12.7263 41.5531 12.6225C41.5457 12.5187 41.5114 12.4187 41.4536 12.3321C41.3958 12.2456 41.3165 12.1755 41.2234 12.1289C41.1304 12.0823 41.0268 12.0607 40.9229 12.0662L38.8529 12.1382C38.7449 12.0062 38.6369 11.8712 38.5259 11.7392L38.9999 9.73817C39.0272 9.63713 39.0275 9.53072 39.0009 9.42951C38.9743 9.32829 38.9217 9.23579 38.8483 9.16119C38.775 9.08659 38.6833 9.03248 38.5826 9.00423C38.4818 8.97599 38.3754 8.97459 38.2739 9.00017L36.2579 9.47717C36.1259 9.37217 35.9999 9.26417 35.8589 9.15617L35.9309 7.08617C35.9353 6.98309 35.9131 6.88062 35.8663 6.78865C35.8195 6.69669 35.7498 6.61834 35.6639 6.56117C35.577 6.50103 35.4757 6.46492 35.3704 6.45649C35.265 6.44806 35.1593 6.46761 35.0639 6.51317L33.1799 7.37117L32.7209 7.12517L32.3999 5.08517C32.3836 4.98286 32.341 4.88653 32.2763 4.80556C32.2116 4.7246 32.1271 4.66176 32.0309 4.62317C31.9337 4.5806 31.827 4.56455 31.7216 4.57667C31.6162 4.58879 31.5159 4.62865 31.4309 4.69217L29.7539 5.89217L29.2559 5.74217L28.5509 3.81017C28.5172 3.71158 28.4583 3.62348 28.3802 3.55454C28.3021 3.4856 28.2073 3.4382 28.1053 3.41701C28.0033 3.39582 27.8975 3.40156 27.7983 3.43368C27.6992 3.46579 27.6101 3.52318 27.5399 3.60017L26.1269 5.11517L25.6139 5.07317L24.5219 3.30017C24.4688 3.21064 24.3933 3.13647 24.3028 3.08495C24.2124 3.03344 24.11 3.00635 24.0059 3.00635C23.9018 3.00635 23.7995 3.03344 23.709 3.08495C23.6186 3.13647 23.5431 3.21064 23.4899 3.30017L22.4009 5.06117L21.8999 5.12417L20.4749 3.60017C20.4053 3.523 20.3169 3.46523 20.2183 3.4325C20.1197 3.39978 20.0142 3.39323 19.9123 3.41349C19.8104 3.43375 19.7155 3.48013 19.6369 3.54809C19.5583 3.61605 19.4987 3.70325 19.4639 3.80117L18.7379 5.73617L18.2399 5.88617L16.5629 4.68617C16.4797 4.62367 16.3817 4.5839 16.2784 4.57075C16.1752 4.5576 16.0703 4.57153 15.9741 4.61117C15.8779 4.65081 15.7936 4.7148 15.7296 4.79685C15.6656 4.8789 15.624 4.97619 15.6089 5.07917L15.2759 7.11917C15.1259 7.20017 14.9699 7.28717 14.8199 7.37117L12.9359 6.51317C12.8406 6.46761 12.7348 6.44806 12.6295 6.45649C12.5241 6.46492 12.4228 6.50103 12.3359 6.56117C12.25 6.61834 12.1803 6.69669 12.1336 6.78865C12.0868 6.88062 12.0645 6.98309 12.0689 7.08617L12.1409 9.15617C12.0089 9.26417 11.8739 9.37217 11.7419 9.48317L9.73493 9.00017C9.63286 8.97262 9.52533 8.97252 9.42321 8.99989C9.3211 9.02726 9.22802 9.08113 9.15342 9.15603C9.07882 9.23094 9.02533 9.32423 8.99838 9.42646C8.97142 9.52869 8.97196 9.63622 8.99993 9.73817L9.48293 11.7572C9.37193 11.8892 9.26393 12.0182 9.15593 12.1562L7.08593 12.0842C6.98201 12.0787 6.87844 12.1003 6.78541 12.1469C6.69237 12.1935 6.61306 12.2636 6.55526 12.3501C6.49747 12.4367 6.46317 12.5367 6.45575 12.6405C6.44833 12.7443 6.46803 12.8483 6.51293 12.9422L7.37093 14.8202C7.28693 14.9702 7.20593 15.1202 7.12493 15.2792L5.08493 15.6002C4.98195 15.6152 4.88466 15.6568 4.80261 15.7208C4.72055 15.7848 4.65657 15.8691 4.61693 15.9653C4.57729 16.0616 4.56336 16.1664 4.5765 16.2697C4.58965 16.3729 4.62943 16.471 4.69193 16.5542L5.89193 18.2312C5.84093 18.3962 5.78993 18.5642 5.74193 18.7322L3.80993 19.4672C3.71201 19.5019 3.6248 19.5616 3.55685 19.6402C3.48889 19.7188 3.44251 19.8137 3.42224 19.9156C3.40198 20.0175 3.40853 20.1229 3.44126 20.2215C3.47398 20.3202 3.53176 20.4086 3.60893 20.4782L5.12393 21.9002C5.09993 22.0622 5.09993 22.2332 5.07293 22.4042L3.29993 23.4932C3.21039 23.5463 3.13622 23.6218 3.08471 23.7123C3.03319 23.8027 3.0061 23.9051 3.0061 24.0092C3.0061 24.1133 3.03319 24.2156 3.08471 24.3061C3.13622 24.3965 3.21039 24.472 3.29993 24.5252L5.07293 25.6142C5.09993 25.8002 5.09993 25.9592 5.12393 26.1272L3.59993 27.5402C3.52276 27.6098 3.46498 27.6982 3.43226 27.7968C3.39953 27.8954 3.39298 28.0009 3.41324 28.1028C3.43351 28.2047 3.47989 28.2996 3.54785 28.3782C3.6158 28.4568 3.70301 28.5164 3.80093 28.5512L5.74493 29.2772C5.79293 29.4452 5.84393 29.6132 5.89493 29.7782L4.69493 31.4552C4.63409 31.5385 4.59578 31.6361 4.5837 31.7386C4.57161 31.8411 4.58615 31.945 4.62593 32.0402C4.66493 32.1358 4.72795 32.2197 4.80889 32.2838C4.88982 32.3479 4.98593 32.3901 5.08793 32.4062L7.12793 32.7392C7.20593 32.8952 7.28993 33.0392 7.37393 33.1982L6.51593 35.0792C6.47103 35.1731 6.45133 35.277 6.45875 35.3808C6.46617 35.4846 6.50047 35.5847 6.55826 35.6712C6.61606 35.7578 6.69537 35.8278 6.78841 35.8744C6.88144 35.921 6.98501 35.9427 7.08893 35.9372L9.15893 35.8652C9.26693 36.0002 9.37493 36.1322 9.48593 36.2642L8.99993 38.2772C8.97522 38.3781 8.97716 38.4838 9.00557 38.5838C9.03398 38.6838 9.08787 38.7746 9.16197 38.8475C9.23607 38.9204 9.32784 38.9728 9.42828 38.9996C9.52872 39.0263 9.63438 39.0265 9.73493 39.0002L11.7539 38.5262L12.1529 38.8532L12.0809 40.9262C12.076 41.0298 12.098 41.133 12.1449 41.2256C12.1917 41.3183 12.2618 41.3971 12.3482 41.4546C12.4347 41.512 12.5346 41.546 12.6381 41.5533C12.7416 41.5606 12.8453 41.5409 12.9389 41.4962L14.8229 40.6382C14.9729 40.7222 15.1229 40.8032 15.2819 40.8842L15.5999 42.9332C15.616 43.0352 15.6582 43.1313 15.7223 43.2122C15.7864 43.2931 15.8703 43.3562 15.9659 43.3952C16.0632 43.4367 16.1695 43.4524 16.2746 43.4408C16.3797 43.4293 16.48 43.3908 16.5659 43.3292L18.2429 42.1292L18.7439 42.2792L19.4699 44.2142C19.5047 44.3121 19.5643 44.3993 19.6429 44.4673C19.7215 44.5352 19.8164 44.5816 19.9183 44.6019C20.0202 44.6221 20.1257 44.6156 20.2243 44.5828C20.3229 44.5501 20.4113 44.4923 20.4809 44.4152L21.8999 42.9002C22.0709 42.9212 22.2419 42.9362 22.4159 42.9512L23.4959 44.7002C23.5492 44.789 23.6246 44.8625 23.7148 44.9136C23.805 44.9646 23.9068 44.9915 24.0104 44.9915C24.114 44.9915 24.2159 44.9646 24.3061 44.9136C24.3962 44.8625 24.4716 44.789 24.5249 44.7002L25.6139 42.9392L26.1269 42.9002L27.5399 44.4002C27.6095 44.4773 27.6979 44.5351 27.7966 44.5678C27.8952 44.6006 28.0006 44.6071 28.1025 44.5869C28.2044 44.5666 28.2993 44.5202 28.3779 44.4523C28.4565 44.3843 28.5162 44.2971 28.5509 44.1992L29.2769 42.2642L29.7779 42.1142L31.4549 43.3142C31.5402 43.3772 31.6406 43.4165 31.746 43.4281C31.8514 43.4397 31.958 43.4232 32.0549 43.3802C32.1505 43.3412 32.2345 43.2781 32.2986 43.1972C32.3627 43.1163 32.4048 43.0202 32.4209 42.9182L32.7539 40.8782L33.2129 40.6322L35.0969 41.4902C35.1905 41.5342 35.2938 41.5533 35.3969 41.5457C35.5 41.5381 35.5993 41.5039 35.6854 41.4466C35.7714 41.3892 35.8411 41.3106 35.8878 41.2184C35.9345 41.1262 35.9566 41.0234 35.9519 40.9202L35.8799 38.8472L36.2789 38.5202L38.2799 39.0002C38.3804 39.0243 38.4854 39.022 38.5847 38.9936C38.684 38.9653 38.7744 38.9117 38.8469 38.8382C38.9179 38.7653 38.9692 38.6756 38.9959 38.5774C39.0227 38.4793 39.0241 38.376 38.9999 38.2772L38.5259 36.2582C38.6369 36.1262 38.7449 35.9972 38.8529 35.8592L40.9229 35.9312C41.026 35.9356 41.1285 35.9133 41.2204 35.8665C41.3124 35.8198 41.3908 35.7501 41.4479 35.6642C41.5076 35.577 41.5432 35.4756 41.5511 35.3702C41.559 35.2649 41.5389 35.1593 41.4929 35.0642L40.6349 33.1832C40.7159 33.0332 40.7999 32.8832 40.8809 32.7242L42.9209 32.3912C43.0234 32.3758 43.1202 32.3342 43.2018 32.2704C43.2834 32.2066 43.3471 32.1227 43.3867 32.0269C43.4262 31.9312 43.4403 31.8268 43.4276 31.724C43.4148 31.6211 43.3757 31.5234 43.3139 31.4402L42.1139 29.7632C42.1649 29.5982 42.2159 29.4302 42.2639 29.2622L44.1989 28.5392C44.2958 28.5033 44.3818 28.443 44.4485 28.3642C44.5153 28.2854 44.5605 28.1906 44.5799 28.0892C44.5986 27.9899 44.5918 27.8875 44.5604 27.7916C44.5289 27.6956 44.4737 27.6091 44.3999 27.5402L42.8999 26.1272C42.9179 25.9562 42.9329 25.7852 42.9509 25.6142L44.6999 24.5252C44.7895 24.472 44.8636 24.3965 44.9151 24.3061C44.9667 24.2156 44.9938 24.1133 44.9938 24.0092C44.9938 23.9051 44.9667 23.8027 44.9151 23.7123C44.8636 23.6218 44.7895 23.5463 44.6999 23.4932ZM32.9039 38.1002C32.6623 38.0489 32.4413 37.927 32.269 37.75C32.0966 37.573 31.9807 37.3489 31.9359 37.1059C31.891 36.863 31.9193 36.6122 32.0171 36.3854C32.1148 36.1585 32.2777 35.9658 32.4851 35.8316C32.6925 35.6974 32.9351 35.6278 33.1821 35.6315C33.4291 35.6353 33.6694 35.7123 33.8727 35.8527C34.0759 35.9932 34.2329 36.1908 34.3237 36.4205C34.4145 36.6502 34.4351 36.9017 34.3829 37.1432C34.3124 37.4655 34.1174 37.7469 33.8404 37.9261C33.5634 38.1054 33.2268 38.1679 32.9039 38.1002ZM32.3039 34.0532C32.1582 34.0219 32.0076 34.0197 31.861 34.0467C31.7144 34.0736 31.5745 34.1293 31.4494 34.2103C31.3243 34.2914 31.2164 34.3964 31.1319 34.5192C31.0474 34.642 30.9879 34.7803 30.9569 34.9262L30.3299 37.8452C28.3192 38.7556 26.1362 39.2228 23.929 39.215C21.7218 39.2072 19.5422 38.7247 17.5379 37.8002L16.9109 34.8812C16.8476 34.587 16.6703 34.33 16.4178 34.1664C16.1653 34.0028 15.8583 33.9459 15.5639 34.0082L12.9869 34.5602C12.5086 34.0673 12.0636 33.5432 11.6549 32.9912H24.1949C24.3359 32.9912 24.4319 32.9642 24.4319 32.8352V28.3892C24.4319 28.2602 24.3359 28.2332 24.1949 28.2332H20.5259V25.4222H24.4919C25.0811 25.4276 25.6492 25.6414 26.0957 26.0259C26.5422 26.4103 26.8381 26.9404 26.9309 27.5222C27.0869 28.1402 27.4349 30.1532 27.6719 30.7982C27.8278 31.3174 28.113 31.7885 28.5008 32.1674C28.8886 32.5463 29.3662 32.8204 29.8889 32.9642H36.1379C36.2134 32.9637 36.2887 32.9567 36.3629 32.9432C35.9303 33.5323 35.4561 34.0897 34.9439 34.6112L32.3069 34.0442L32.3039 34.0532ZM14.9639 38.0402C14.7226 38.0922 14.4713 38.0715 14.2417 37.9807C14.0121 37.8899 13.8146 37.7331 13.6742 37.53C13.5338 37.3269 13.4568 37.0868 13.4529 36.8399C13.449 36.5931 13.5184 36.3506 13.6523 36.1432C13.7863 35.9358 13.9787 35.7728 14.2053 35.6748C14.4319 35.5768 14.6824 35.5482 14.9253 35.5926C15.1681 35.637 15.3924 35.7525 15.5696 35.9243C15.7468 36.0962 15.8691 36.3168 15.9209 36.5582C15.9566 36.7188 15.9601 36.8848 15.9313 37.0468C15.9024 37.2087 15.8417 37.3634 15.7527 37.5017C15.6637 37.6401 15.5482 37.7594 15.4128 37.8529C15.2774 37.9463 15.1249 38.012 14.9639 38.0462V38.0402ZM10.1999 18.7592C10.2992 18.9844 10.3295 19.234 10.2869 19.4764C10.2444 19.7188 10.131 19.9432 9.96102 20.1211C9.79103 20.2991 9.57211 20.4227 9.33191 20.4764C9.09171 20.53 8.841 20.5112 8.61146 20.4224C8.38193 20.3336 8.18386 20.1788 8.04228 19.9775C7.9007 19.7761 7.82197 19.5374 7.81603 19.2913C7.81008 19.0453 7.8772 18.803 8.00889 18.5951C8.14058 18.3872 8.33095 18.2229 8.55593 18.1232C8.85833 17.9899 9.20122 17.9821 9.50942 18.1013C9.81761 18.2205 10.0659 18.4571 10.1999 18.7592ZM8.74793 22.2242L11.4329 21.0242C11.705 20.8998 11.917 20.6732 12.0231 20.3936C12.1293 20.1139 12.1209 19.8037 11.9999 19.5302L11.4569 18.2792H13.6289V28.0802H9.24293C8.84912 26.7148 8.64718 25.3012 8.64293 23.8802C8.64326 23.329 8.6723 22.7783 8.72993 22.2302L8.74793 22.2242ZM20.5289 21.2732V18.3872H25.7069C26.1483 18.3867 26.5766 18.5373 26.9204 18.814C27.2643 19.0908 27.503 19.4769 27.5969 19.9082C27.465 20.3818 27.1568 20.7871 26.7357 21.0408C26.3146 21.2946 25.8124 21.3778 25.3319 21.2732H20.5289ZM39.3449 23.8712C39.3449 24.2552 39.3309 24.6342 39.3029 25.0082H37.7249C37.6922 25.0066 37.6595 25.0126 37.6293 25.0255C37.5992 25.0385 37.5724 25.0582 37.551 25.083C37.5296 25.1079 37.5142 25.1373 37.5058 25.1691C37.4975 25.2008 37.4965 25.234 37.5029 25.2662V25.9922C37.5475 26.2559 37.5345 26.526 37.465 26.7843C37.3955 27.0425 37.271 27.2826 37.1001 27.4883C36.9292 27.694 36.7158 27.8603 36.4747 27.9759C36.2336 28.0915 35.9703 28.1537 35.7029 28.1582C35.3545 28.2226 34.9946 28.1779 34.6725 28.0303C34.3504 27.8826 34.0816 27.6392 33.9029 27.3332C33.8456 26.4856 33.5892 25.6636 33.1544 24.9338C32.7197 24.204 32.1189 23.5871 31.4009 23.1332C32.2459 22.7246 32.9759 22.1123 33.5252 21.3513C34.0746 20.5904 34.4261 19.7047 34.5479 18.7742C34.5169 17.953 34.2812 17.1526 33.862 16.4458C33.4428 15.739 32.8536 15.1482 32.1479 14.7272C31.1593 14.0885 30.0227 13.7155 28.8479 13.6442H12.5699C14.8187 11.1268 17.836 9.42253 21.1529 8.79617L23.0729 10.8002C23.2812 11.0173 23.5671 11.1431 23.868 11.1498C24.1688 11.1566 24.4601 11.0438 24.6779 10.8362L26.8259 8.79017C29.0139 9.20149 31.0862 10.0837 32.8993 11.3756C34.7124 12.6676 36.2228 14.3384 37.3259 16.2722L35.8589 19.5902C35.7376 19.866 35.7305 20.1786 35.8389 20.4596C35.9474 20.7407 36.1628 20.9674 36.4379 21.0902L39.2669 22.3502C39.3179 22.8512 39.3419 23.3612 39.3419 23.8742L39.3449 23.8712ZM23.0759 7.07117C23.2543 6.90179 23.4789 6.78907 23.7214 6.74722C23.9638 6.70538 24.2132 6.73629 24.438 6.83606C24.6629 6.93583 24.8532 7.09999 24.9848 7.3078C25.1165 7.51561 25.1836 7.75778 25.1778 8.00371C25.1719 8.24965 25.0933 8.48834 24.9519 8.68966C24.8105 8.89097 24.6127 9.04588 24.3833 9.13484C24.1539 9.22379 23.9034 9.2428 23.6632 9.18947C23.4231 9.13614 23.2041 9.01285 23.0339 8.83517C22.8082 8.59695 22.6857 8.27924 22.693 7.95115C22.7003 7.62305 22.8368 7.31111 23.0729 7.08317L23.0759 7.07117ZM37.6619 18.8072C37.7624 18.5826 37.9271 18.3928 38.1353 18.2618C38.3435 18.1308 38.5859 18.0644 38.8318 18.071C39.0778 18.0776 39.3162 18.1569 39.5171 18.2989C39.718 18.4409 39.8723 18.6392 39.9605 18.8689C40.0488 19.0985 40.067 19.3491 40.013 19.5891C39.9589 19.8291 39.835 20.0477 39.6568 20.2173C39.4786 20.3869 39.2541 20.5 39.0117 20.5421C38.7694 20.5843 38.5199 20.5537 38.2949 20.4542C37.9957 20.3196 37.7614 20.0726 37.643 19.7665C37.5245 19.4605 37.5313 19.1202 37.6619 18.8192V18.8072Z" fill="#ED7950"/>
</svg>
