<svg width="24" height="24" viewBox="0 0 24 24" fill="none" xmlns="http://www.w3.org/2000/svg">
<path d="M0 12C0 5.37258 5.37258 0 12 0C18.6274 0 24 5.37258 24 12C24 18.6274 18.6274 24 12 24C5.37258 24 0 18.6274 0 12Z" fill="black"/>
<path d="M13.3169 13.6806C10.618 14.4662 8.38546 15.612 6.98797 16.9546L6.92627 17.0141C7.29788 17.355 7.70537 17.6598 8.14584 17.9189L8.24055 17.8066C8.62221 17.355 9.03113 16.9185 9.45725 16.507C10.6008 15.4028 11.9093 14.4468 13.3183 13.6792L13.3169 13.6806Z" fill="white"/>
<path d="M4.71924 12.5166C4.82685 13.9174 5.36346 15.2017 6.20569 16.2464L6.24443 16.209C7.10961 15.3818 8.23593 14.6295 9.59468 13.9742C10.7856 13.3992 12.1529 12.9059 13.6265 12.5166H4.71924Z" fill="white"/>
<path d="M10.212 6.75982C12.6268 9.09164 15.6657 10.6337 18.9987 11.2184C18.597 7.76154 15.561 5.07227 11.8721 5.07227C10.8979 5.07227 9.96954 5.2607 9.12158 5.60015C9.46593 6.00195 9.83324 6.39266 10.212 6.75982Z" fill="white"/>
<path d="M6.98797 7.04537C8.38546 8.38934 10.618 9.53377 13.3169 10.3207C11.9079 9.55178 10.5994 8.59716 9.45582 7.49291C9.03113 7.08278 8.62221 6.64634 8.23911 6.19328L8.14443 6.08105C7.70393 6.34015 7.29644 6.64496 6.92627 6.9858L6.98797 7.04537Z" fill="white"/>
<path d="M10.212 17.2398C9.83181 17.6069 9.4645 17.9976 9.12158 18.3994C9.96811 18.7389 10.8979 18.9273 11.8721 18.9273C15.561 18.9273 18.597 16.238 19.0002 12.7798C15.6671 13.3645 12.6282 14.9066 10.2135 17.2384L10.212 17.2398Z" fill="white"/>
<path d="M9.59468 10.0254C8.23593 9.37007 7.10961 8.61774 6.24443 7.79058L6.20569 7.75317C5.36346 8.79785 4.82685 10.0822 4.71924 11.483H13.625C12.1515 11.0937 10.7856 10.6004 9.59324 10.024L9.59468 10.0254Z" fill="white"/>
</svg>
