<?xml version="1.0" standalone="no"?>
<!DOCTYPE svg PUBLIC "-//W3C//DTD SVG 20010904//EN"
 "http://www.w3.org/TR/2001/REC-SVG-20010904/DTD/svg10.dtd">
<svg version="1.0" xmlns="http://www.w3.org/2000/svg"
 width="700.000000pt" height="700.000000pt" viewBox="0 0 700.000000 700.000000"
 preserveAspectRatio="xMidYMid meet">
<metadata>
Created by potrace 1.14, written by Peter Selinger 2001-2017
</metadata>
<g transform="translate(0.000000,700.000000) scale(0.100000,-0.100000)"
fill="#000000" stroke="none">
<path d="M1410 6993 c-176 -17 -395 -80 -546 -156 -157 -79 -270 -161 -405
-296 -187 -187 -301 -371 -379 -611 -81 -248 -75 -54 -75 -2430 0 -2376 -6
-2182 75 -2430 78 -240 192 -424 379 -611 187 -187 371 -301 611 -379 248 -81
53 -75 2435 -75 l2120 0 112 23 c319 64 573 201 804 431 187 187 301 371 379
611 81 248 75 54 75 2430 0 2376 6 2182 -75 2430 -78 240 -192 424 -379 611
-229 228 -478 363 -798 431 l-108 23 -2095 1 c-1152 1 -2111 -1 -2130 -3z
m2888 -1615 c2 -418 1 -448 -15 -456 -10 -5 -67 -12 -128 -15 -183 -10 -384
-56 -575 -132 -50 -20 -95 -33 -100 -30 -6 4 -10 200 -10 546 l0 539 413 -2
412 -3 3 -447z m-978 -681 l0 -63 -67 -47 c-153 -104 -325 -281 -434 -447 -38
-58 -75 -114 -83 -126 -12 -18 -29 -22 -103 -27 -111 -8 -187 -28 -289 -77
-206 -99 -362 -284 -420 -500 -27 -99 -25 -282 4 -385 105 -368 473 -609 863
-565 193 22 344 95 484 235 70 69 100 109 132 170 51 99 79 191 89 284 l7 71
-399 2 -399 3 3 95 c11 368 212 774 514 1038 215 187 481 316 773 374 160 32
451 32 613 0 219 -44 423 -128 607 -249 137 -91 337 -292 428 -429 349 -527
337 -1190 -31 -1708 -77 -109 -246 -276 -362 -359 -179 -127 -401 -223 -620
-267 -142 -29 -268 -35 -643 -32 l-317 2 0 59 0 59 88 63 c174 126 368 339
469 514 21 36 44 65 53 66 21 0 85 7 150 14 30 4 92 19 137 35 246 82 434 279
505 527 29 101 31 285 4 383 -58 214 -215 401 -419 499 -130 63 -190 75 -357
75 -169 0 -228 -12 -365 -79 -246 -120 -407 -349 -432 -617 l-6 -68 399 -2
399 -3 -2 -80 c-9 -338 -173 -704 -433 -966 -250 -253 -533 -399 -895 -461
-102 -17 -148 -19 -310 -15 -280 7 -449 49 -690 168 -159 79 -287 171 -415
299 -201 201 -330 426 -400 695 -146 568 55 1161 525 1545 230 187 533 315
833 350 37 4 235 8 440 9 l372 1 0 -63z"/>
</g>
</svg>
