<svg width="1111" height="664" viewBox="0 0 1111 664" fill="none" xmlns="http://www.w3.org/2000/svg">
<path fill-rule="evenodd" clip-rule="evenodd" d="M0.885198 1109.61L0.500048 1109.61L0.499951 0.385181L0.885149 0.385181L0.885149 -1.68375e-08L1110.11 -4.85028e-05L1110.11 0.385133L1110.5 0.385133L1110.5 1109.61L1110.11 1109.61L1110.11 1110L0.885198 1110L0.885198 1109.61ZM1.27025 0.770222L1.27025 55.4615L55.9614 55.4615L55.9614 0.770219L1.27025 0.770222ZM1.27025 56.2318L1.27026 110.923L55.9614 110.923L55.9614 56.2318L1.27025 56.2318ZM1.27026 111.693L1.27026 166.384L55.9614 166.384L55.9614 111.693L1.27026 111.693ZM1.27027 167.155L1.27027 221.846L55.9615 221.846L55.9614 167.155L1.27027 167.155ZM1.27027 222.616L1.27028 277.307L55.9615 277.307L55.9615 222.616L1.27027 222.616ZM1.27028 278.078L1.27028 332.769L55.9615 332.769L55.9615 278.078L1.27028 278.078ZM1.27028 333.539L1.27028 388.23L55.9615 388.23L55.9615 333.539L1.27028 333.539ZM1.27028 389.001L1.27029 443.692L55.9615 443.692L55.9615 389.001L1.27028 389.001ZM1.27029 444.462L1.27029 499.153L55.9615 499.153L55.9615 444.462L1.27029 444.462ZM1.27029 499.924L1.2703 554.615L55.9615 554.615L55.9615 499.924L1.27029 499.924ZM1.2703 555.385L1.2703 610.076L55.9615 610.076L55.9615 555.385L1.2703 555.385ZM1.2703 610.847L1.27031 665.538L55.9615 665.538L55.9615 610.847L1.2703 610.847ZM1.27031 666.308L1.27031 720.999L55.9615 720.999L55.9615 666.308L1.27031 666.308ZM1.27031 721.77L1.27031 776.461L55.9615 776.461L55.9615 721.77L1.27031 721.77ZM1.27031 777.231L1.27032 831.922L55.9615 831.922L55.9615 777.231L1.27031 777.231ZM1.27032 832.693L1.27033 887.384L55.9615 887.384L55.9615 832.693L1.27032 832.693ZM1.27033 888.154L1.27033 942.845L55.9616 942.845L55.9615 888.154L1.27033 888.154ZM1.27033 943.616L1.27034 998.307L55.9616 998.307L55.9616 943.616L1.27033 943.616ZM1.27034 999.077L1.27034 1053.77L55.9616 1053.77L55.9616 999.077L1.27034 999.077ZM1.27034 1054.54L1.27034 1109.23L55.9616 1109.23L55.9616 1054.54L1.27034 1054.54ZM56.7317 55.4615L56.7317 0.770219L111.423 0.770217L111.423 55.4615L56.7317 55.4615ZM56.7317 110.923L56.7317 56.2318L111.423 56.2318L111.423 110.923L56.7317 110.923ZM56.7317 166.384L56.7317 111.693L111.423 111.693L111.423 166.384L56.7317 166.384ZM56.7317 221.846L56.7317 167.155L111.423 167.155L111.423 221.846L56.7317 221.846ZM56.7317 277.307L56.7317 222.616L111.423 222.616L111.423 277.307L56.7317 277.307ZM56.7317 332.769L56.7317 278.078L111.423 278.078L111.423 332.769L56.7317 332.769ZM56.7318 388.23L56.7317 333.539L111.423 333.539L111.423 388.23L56.7318 388.23ZM56.7318 443.692L56.7318 389.001L111.423 389.001L111.423 443.692L56.7318 443.692ZM56.7318 499.153L56.7318 444.462L111.423 444.462L111.423 499.153L56.7318 499.153ZM56.7318 554.615L56.7318 499.924L111.423 499.924L111.423 554.615L56.7318 554.615ZM56.7318 610.076L56.7318 555.385L111.423 555.385L111.423 610.076L56.7318 610.076ZM56.7318 665.538L56.7318 610.847L111.423 610.847L111.423 665.538L56.7318 665.538ZM56.7318 720.999L56.7318 666.308L111.423 666.308L111.423 720.999L56.7318 720.999ZM56.7318 776.461L56.7318 721.77L111.423 721.77L111.423 776.461L56.7318 776.461ZM56.7318 831.922L56.7318 777.231L111.423 777.231L111.423 831.922L56.7318 831.922ZM56.7318 887.384L56.7318 832.693L111.423 832.693L111.423 887.384L56.7318 887.384ZM56.7319 942.845L56.7318 888.154L111.423 888.154L111.423 942.845L56.7319 942.845ZM56.7319 998.307L56.7319 943.616L111.423 943.616L111.423 998.307L56.7319 998.307ZM56.7319 1053.77L56.7319 999.077L111.423 999.077L111.423 1053.77L56.7319 1053.77ZM56.7319 1109.23L56.7319 1054.54L111.423 1054.54L111.423 1109.23L56.7319 1109.23ZM112.193 1109.23L166.884 1109.23L166.884 1054.54L112.193 1054.54L112.193 1109.23ZM112.193 1053.77L166.884 1053.77L166.884 999.077L112.193 999.077L112.193 1053.77ZM112.193 998.307L166.884 998.307L166.884 943.616L112.193 943.616L112.193 998.307ZM112.193 942.845L166.884 942.845L166.884 888.154L112.193 888.154L112.193 942.845ZM112.193 887.384L166.884 887.384L166.884 832.693L112.193 832.693L112.193 887.384ZM112.193 831.922L166.884 831.922L166.884 777.231L112.193 777.231L112.193 831.922ZM112.193 776.461L166.884 776.461L166.884 721.77L112.193 721.77L112.193 776.461ZM112.193 720.999L166.884 720.999L166.884 666.308L112.193 666.308L112.193 720.999ZM112.193 665.538L166.884 665.538L166.884 610.847L112.193 610.847L112.193 665.538ZM112.193 610.076L166.884 610.076L166.884 555.385L112.193 555.385L112.193 610.076ZM112.193 554.615L166.884 554.615L166.884 499.924L112.193 499.924L112.193 554.615ZM112.193 499.153L166.884 499.153L166.884 444.462L112.193 444.462L112.193 499.153ZM112.193 443.692L166.884 443.692L166.884 389.001L112.193 389.001L112.193 443.692ZM112.193 388.23L166.884 388.23L166.884 333.539L112.193 333.539L112.193 388.23ZM112.193 332.769L166.884 332.769L166.884 278.078L112.193 278.078L112.193 332.769ZM112.193 277.307L166.884 277.307L166.884 222.616L112.193 222.616L112.193 277.307ZM112.193 221.846L166.884 221.846L166.884 167.155L112.193 167.155L112.193 221.846ZM112.193 166.384L166.884 166.384L166.884 111.693L112.193 111.693L112.193 166.384ZM112.193 110.923L166.884 110.923L166.884 56.2318L112.193 56.2318L112.193 110.923ZM112.193 55.4615L166.884 55.4615L166.884 0.770214L112.193 0.770217L112.193 55.4615ZM167.655 55.4615L167.655 0.770214L222.346 0.770212L222.346 55.4615L167.655 55.4615ZM167.655 110.923L167.655 56.2318L222.346 56.2318L222.346 110.923L167.655 110.923ZM167.655 166.384L167.655 111.693L222.346 111.693L222.346 166.384L167.655 166.384ZM167.655 221.846L167.655 167.155L222.346 167.155L222.346 221.846L167.655 221.846ZM167.655 277.307L167.655 222.616L222.346 222.616L222.346 277.307L167.655 277.307ZM167.655 332.769L167.655 278.078L222.346 278.078L222.346 332.769L167.655 332.769ZM167.655 388.23L167.655 333.539L222.346 333.539L222.346 388.23L167.655 388.23ZM167.655 443.692L167.655 389.001L222.346 389.001L222.346 443.692L167.655 443.692ZM167.655 499.153L167.655 444.462L222.346 444.462L222.346 499.153L167.655 499.153ZM167.655 554.615L167.655 499.924L222.346 499.924L222.346 554.615L167.655 554.615ZM167.655 610.076L167.655 555.385L222.346 555.385L222.346 610.076L167.655 610.076ZM167.655 665.538L167.655 610.847L222.346 610.847L222.346 665.538L167.655 665.538ZM167.655 720.999L167.655 666.308L222.346 666.308L222.346 720.999L167.655 720.999ZM167.655 776.461L167.655 721.77L222.346 721.77L222.346 776.461L167.655 776.461ZM167.655 831.922L167.655 777.231L222.346 777.231L222.346 831.922L167.655 831.922ZM167.655 887.384L167.655 832.693L222.346 832.693L222.346 887.384L167.655 887.384ZM167.655 942.845L167.655 888.154L222.346 888.154L222.346 942.845L167.655 942.845ZM167.655 998.307L167.655 943.616L222.346 943.616L222.346 998.307L167.655 998.307ZM167.655 1053.77L167.655 999.077L222.346 999.077L222.346 1053.77L167.655 1053.77ZM167.655 1109.23L167.655 1054.54L222.346 1054.54L222.346 1109.23L167.655 1109.23ZM223.116 1109.23L277.807 1109.23L277.807 1054.54L223.116 1054.54L223.116 1109.23ZM223.116 1053.77L277.807 1053.77L277.807 999.077L223.116 999.077L223.116 1053.77ZM223.116 998.307L277.807 998.307L277.807 943.616L223.116 943.616L223.116 998.307ZM223.116 942.845L277.807 942.845L277.807 888.154L223.116 888.154L223.116 942.845ZM223.116 887.384L277.807 887.384L277.807 832.693L223.116 832.693L223.116 887.384ZM223.116 831.922L277.807 831.922L277.807 777.231L223.116 777.231L223.116 831.922ZM223.116 776.461L277.807 776.461L277.807 721.77L223.116 721.77L223.116 776.461ZM223.116 720.999L277.807 720.999L277.807 666.308L223.116 666.308L223.116 720.999ZM223.116 665.538L277.807 665.538L277.807 610.847L223.116 610.847L223.116 665.538ZM223.116 610.076L277.807 610.076L277.807 555.385L223.116 555.385L223.116 610.076ZM223.116 554.615L277.807 554.615L277.807 499.924L223.116 499.924L223.116 554.615ZM223.116 499.153L277.807 499.153L277.807 444.462L223.116 444.462L223.116 499.153ZM223.116 443.692L277.807 443.692L277.807 389.001L223.116 389.001L223.116 443.692ZM223.116 388.23L277.807 388.23L277.807 333.539L223.116 333.539L223.116 388.23ZM223.116 332.769L277.807 332.769L277.807 278.078L223.116 278.078L223.116 332.769ZM223.116 277.307L277.807 277.307L277.807 222.616L223.116 222.616L223.116 277.307ZM223.116 221.846L277.807 221.846L277.807 167.155L223.116 167.155L223.116 221.846ZM223.116 166.384L277.807 166.384L277.807 111.693L223.116 111.693L223.116 166.384ZM223.116 110.923L277.807 110.923L277.807 56.2318L223.116 56.2318L223.116 110.923ZM223.116 55.4615L277.807 55.4615L277.807 0.77021L223.116 0.770212L223.116 55.4615ZM278.578 55.4615L278.578 0.77021L333.269 0.770207L333.269 55.4615L278.578 55.4615ZM278.578 110.923L278.578 56.2318L333.269 56.2318L333.269 110.923L278.578 110.923ZM278.578 166.384L278.578 111.693L333.269 111.693L333.269 166.384L278.578 166.384ZM278.578 221.846L278.578 167.155L333.269 167.155L333.269 221.846L278.578 221.846ZM278.578 277.307L278.578 222.616L333.269 222.616L333.269 277.307L278.578 277.307ZM278.578 332.769L278.578 278.078L333.269 278.078L333.269 332.769L278.578 332.769ZM278.578 388.23L278.578 333.539L333.269 333.539L333.269 388.23L278.578 388.23ZM278.578 443.692L278.578 389.001L333.269 389.001L333.269 443.692L278.578 443.692ZM278.578 499.153L278.578 444.462L333.269 444.462L333.269 499.153L278.578 499.153ZM278.578 554.615L278.578 499.924L333.269 499.924L333.269 554.615L278.578 554.615ZM278.578 610.076L278.578 555.385L333.269 555.385L333.269 610.076L278.578 610.076ZM278.578 665.538L278.578 610.847L333.269 610.847L333.269 665.538L278.578 665.538ZM278.578 720.999L278.578 666.308L333.269 666.308L333.269 720.999L278.578 720.999ZM278.578 776.461L278.578 721.77L333.269 721.77L333.269 776.461L278.578 776.461ZM278.578 831.922L278.578 777.231L333.269 777.231L333.269 831.922L278.578 831.922ZM278.578 887.384L278.578 832.693L333.269 832.693L333.269 887.384L278.578 887.384ZM278.578 942.845L278.578 888.154L333.269 888.154L333.269 942.845L278.578 942.845ZM278.578 998.307L278.578 943.616L333.269 943.616L333.269 998.307L278.578 998.307ZM278.578 1053.77L278.578 999.077L333.269 999.077L333.269 1053.77L278.578 1053.77ZM278.578 1109.23L278.578 1054.54L333.269 1054.54L333.269 1109.23L278.578 1109.23ZM334.039 1109.23L388.73 1109.23L388.73 1054.54L334.039 1054.54L334.039 1109.23ZM334.039 1053.77L388.73 1053.77L388.73 999.077L334.039 999.077L334.039 1053.77ZM334.039 998.307L388.73 998.307L388.73 943.616L334.039 943.616L334.039 998.307ZM334.039 942.845L388.73 942.845L388.73 888.154L334.039 888.154L334.039 942.845ZM334.039 887.384L388.73 887.384L388.73 832.693L334.039 832.693L334.039 887.384ZM334.039 831.922L388.73 831.922L388.73 777.231L334.039 777.231L334.039 831.922ZM334.039 776.461L388.73 776.461L388.73 721.77L334.039 721.77L334.039 776.461ZM334.039 720.999L388.73 720.999L388.73 666.308L334.039 666.308L334.039 720.999ZM334.039 665.538L388.73 665.538L388.73 610.847L334.039 610.847L334.039 665.538ZM334.039 610.076L388.73 610.076L388.73 555.385L334.039 555.385L334.039 610.076ZM334.039 554.615L388.73 554.615L388.73 499.924L334.039 499.924L334.039 554.615ZM334.039 499.153L388.73 499.153L388.73 444.462L334.039 444.462L334.039 499.153ZM334.039 443.692L388.73 443.692L388.73 389.001L334.039 389.001L334.039 443.692ZM334.039 388.23L388.73 388.23L388.73 333.539L334.039 333.539L334.039 388.23ZM334.039 332.769L388.73 332.769L388.73 278.078L334.039 278.078L334.039 332.769ZM334.039 277.307L388.73 277.307L388.73 222.616L334.039 222.616L334.039 277.307ZM334.039 221.846L388.73 221.846L388.73 167.155L334.039 167.155L334.039 221.846ZM334.039 166.384L388.73 166.384L388.73 111.693L334.039 111.693L334.039 166.384ZM334.039 110.923L388.73 110.923L388.73 56.2318L334.039 56.2318L334.039 110.923ZM334.039 55.4615L388.73 55.4615L388.73 0.770205L334.039 0.770207L334.039 55.4615ZM389.501 55.4615L389.501 0.770205L444.192 0.770202L444.192 55.4614L389.501 55.4615ZM389.501 110.923L389.501 56.2318L444.192 56.2318L444.192 110.923L389.501 110.923ZM389.501 166.384L389.501 111.693L444.192 111.693L444.192 166.384L389.501 166.384ZM389.501 221.846L389.501 167.155L444.192 167.155L444.192 221.846L389.501 221.846ZM389.501 277.307L389.501 222.616L444.192 222.616L444.192 277.307L389.501 277.307ZM389.501 332.769L389.501 278.078L444.192 278.078L444.192 332.769L389.501 332.769ZM389.501 388.23L389.501 333.539L444.192 333.539L444.192 388.23L389.501 388.23ZM389.501 443.692L389.501 389.001L444.192 389.001L444.192 443.692L389.501 443.692ZM389.501 499.153L389.501 444.462L444.192 444.462L444.192 499.153L389.501 499.153ZM389.501 554.615L389.501 499.924L444.192 499.924L444.192 554.615L389.501 554.615ZM389.501 610.076L389.501 555.385L444.192 555.385L444.192 610.076L389.501 610.076ZM389.501 665.538L389.501 610.847L444.192 610.847L444.192 665.538L389.501 665.538ZM389.501 720.999L389.501 666.308L444.192 666.308L444.192 720.999L389.501 720.999ZM389.501 776.461L389.501 721.77L444.192 721.77L444.192 776.461L389.501 776.461ZM389.501 831.922L389.501 777.231L444.192 777.231L444.192 831.922L389.501 831.922ZM389.501 887.384L389.501 832.693L444.192 832.693L444.192 887.384L389.501 887.384ZM389.501 942.845L389.501 888.154L444.192 888.154L444.192 942.845L389.501 942.845ZM389.501 998.307L389.501 943.616L444.192 943.616L444.192 998.307L389.501 998.307ZM389.501 1053.77L389.501 999.077L444.192 999.077L444.192 1053.77L389.501 1053.77ZM389.501 1109.23L389.501 1054.54L444.192 1054.54L444.192 1109.23L389.501 1109.23ZM444.962 1109.23L499.653 1109.23L499.653 1054.54L444.962 1054.54L444.962 1109.23ZM444.962 1053.77L499.653 1053.77L499.653 999.077L444.962 999.077L444.962 1053.77ZM444.962 998.307L499.653 998.307L499.653 943.616L444.962 943.616L444.962 998.307ZM444.962 942.845L499.653 942.845L499.653 888.154L444.962 888.154L444.962 942.845ZM444.962 887.384L499.653 887.384L499.653 832.693L444.962 832.693L444.962 887.384ZM444.962 831.922L499.653 831.922L499.653 777.231L444.962 777.231L444.962 831.922ZM444.962 776.461L499.653 776.461L499.653 721.77L444.962 721.77L444.962 776.461ZM444.962 720.999L499.653 720.999L499.653 666.308L444.962 666.308L444.962 720.999ZM444.962 665.538L499.653 665.538L499.653 610.847L444.962 610.847L444.962 665.538ZM444.962 610.076L499.653 610.076L499.653 555.385L444.962 555.385L444.962 610.076ZM444.962 554.615L499.653 554.615L499.653 499.924L444.962 499.924L444.962 554.615ZM444.962 499.153L499.653 499.153L499.653 444.462L444.962 444.462L444.962 499.153ZM444.962 443.692L499.653 443.692L499.653 389.001L444.962 389.001L444.962 443.692ZM444.962 388.23L499.653 388.23L499.653 333.539L444.962 333.539L444.962 388.23ZM444.962 332.769L499.653 332.769L499.653 278.078L444.962 278.078L444.962 332.769ZM444.962 277.307L499.653 277.307L499.653 222.616L444.962 222.616L444.962 277.307ZM444.962 221.846L499.653 221.846L499.653 167.155L444.962 167.155L444.962 221.846ZM444.962 166.384L499.653 166.384L499.653 111.693L444.962 111.693L444.962 166.384ZM444.962 110.923L499.653 110.923L499.653 56.2318L444.962 56.2318L444.962 110.923ZM444.962 55.4614L499.653 55.4614L499.653 0.7702L444.962 0.770202L444.962 55.4614ZM500.424 55.4614L500.424 0.7702L555.115 0.770197L555.115 55.4614L500.424 55.4614ZM500.424 110.923L500.424 56.2318L555.115 56.2318L555.115 110.923L500.424 110.923ZM500.424 166.384L500.424 111.693L555.115 111.693L555.115 166.384L500.424 166.384ZM500.424 221.846L500.424 167.155L555.115 167.155L555.115 221.846L500.424 221.846ZM500.424 277.307L500.424 222.616L555.115 222.616L555.115 277.307L500.424 277.307ZM500.424 332.769L500.424 278.078L555.115 278.078L555.115 332.769L500.424 332.769ZM500.424 388.23L500.424 333.539L555.115 333.539L555.115 388.23L500.424 388.23ZM500.424 443.692L500.424 389.001L555.115 389.001L555.115 443.692L500.424 443.692ZM500.424 499.153L500.424 444.462L555.115 444.462L555.115 499.153L500.424 499.153ZM500.424 554.615L500.424 499.924L555.115 499.924L555.115 554.615L500.424 554.615ZM500.424 610.076L500.424 555.385L555.115 555.385L555.115 610.076L500.424 610.076ZM500.424 665.538L500.424 610.847L555.115 610.847L555.115 665.538L500.424 665.538ZM500.424 720.999L500.424 666.308L555.115 666.308L555.115 720.999L500.424 720.999ZM500.424 776.461L500.424 721.77L555.115 721.77L555.115 776.461L500.424 776.461ZM500.424 831.922L500.424 777.231L555.115 777.231L555.115 831.922L500.424 831.922ZM500.424 887.384L500.424 832.693L555.115 832.693L555.115 887.384L500.424 887.384ZM500.424 942.845L500.424 888.154L555.115 888.154L555.115 942.845L500.424 942.845ZM500.424 998.307L500.424 943.616L555.115 943.616L555.115 998.307L500.424 998.307ZM500.424 1053.77L500.424 999.077L555.115 999.077L555.115 1053.77L500.424 1053.77ZM500.424 1109.23L500.424 1054.54L555.115 1054.54L555.115 1109.23L500.424 1109.23ZM555.885 1109.23L610.576 1109.23L610.576 1054.54L555.885 1054.54L555.885 1109.23ZM555.885 1053.77L610.576 1053.77L610.576 999.077L555.885 999.077L555.885 1053.77ZM555.885 998.307L610.576 998.307L610.576 943.616L555.885 943.616L555.885 998.307ZM555.885 942.845L610.576 942.845L610.576 888.154L555.885 888.154L555.885 942.845ZM555.885 887.384L610.576 887.384L610.576 832.693L555.885 832.693L555.885 887.384ZM555.885 831.922L610.576 831.922L610.576 777.231L555.885 777.231L555.885 831.922ZM555.885 776.461L610.576 776.461L610.576 721.77L555.885 721.77L555.885 776.461ZM555.885 720.999L610.576 720.999L610.576 666.308L555.885 666.308L555.885 720.999ZM555.885 665.538L610.576 665.538L610.576 610.847L555.885 610.847L555.885 665.538ZM555.885 610.076L610.576 610.076L610.576 555.385L555.885 555.385L555.885 610.076ZM555.885 554.615L610.576 554.615L610.576 499.924L555.885 499.924L555.885 554.615ZM555.885 499.153L610.576 499.153L610.576 444.462L555.885 444.462L555.885 499.153ZM555.885 443.692L610.576 443.692L610.576 389.001L555.885 389.001L555.885 443.692ZM555.885 388.23L610.576 388.23L610.576 333.539L555.885 333.539L555.885 388.23ZM555.885 332.769L610.576 332.769L610.576 278.078L555.885 278.078L555.885 332.769ZM555.885 277.307L610.576 277.307L610.576 222.616L555.885 222.616L555.885 277.307ZM555.885 221.846L610.576 221.846L610.576 167.155L555.885 167.155L555.885 221.846ZM555.885 166.384L610.576 166.384L610.576 111.693L555.885 111.693L555.885 166.384ZM555.885 110.923L610.576 110.923L610.576 56.2318L555.885 56.2318L555.885 110.923ZM555.885 55.4614L610.576 55.4614L610.576 0.770195L555.885 0.770197L555.885 55.4614ZM611.347 55.4614L611.347 0.770195L666.038 0.770193L666.038 55.4614L611.347 55.4614ZM611.347 110.923L611.347 56.2318L666.038 56.2318L666.038 110.923L611.347 110.923ZM611.347 166.384L611.347 111.693L666.038 111.693L666.038 166.384L611.347 166.384ZM611.347 221.846L611.347 167.155L666.038 167.155L666.038 221.846L611.347 221.846ZM611.347 277.307L611.347 222.616L666.038 222.616L666.038 277.307L611.347 277.307ZM611.347 332.769L611.347 278.078L666.038 278.078L666.038 332.769L611.347 332.769ZM611.347 388.23L611.347 333.539L666.038 333.539L666.038 388.23L611.347 388.23ZM611.347 443.692L611.347 389.001L666.038 389.001L666.038 443.692L611.347 443.692ZM611.347 499.153L611.347 444.462L666.038 444.462L666.038 499.153L611.347 499.153ZM611.347 554.615L611.347 499.924L666.038 499.924L666.038 554.615L611.347 554.615ZM611.347 610.076L611.347 555.385L666.038 555.385L666.038 610.076L611.347 610.076ZM611.347 665.538L611.347 610.847L666.038 610.847L666.038 665.538L611.347 665.538ZM611.347 720.999L611.347 666.308L666.038 666.308L666.038 720.999L611.347 720.999ZM611.347 776.461L611.347 721.77L666.038 721.77L666.038 776.461L611.347 776.461ZM611.347 831.922L611.347 777.231L666.038 777.231L666.038 831.922L611.347 831.922ZM611.347 887.384L611.347 832.693L666.038 832.693L666.038 887.384L611.347 887.384ZM611.347 942.845L611.347 888.154L666.038 888.154L666.038 942.845L611.347 942.845ZM611.347 998.307L611.347 943.616L666.038 943.616L666.038 998.307L611.347 998.307ZM611.347 1053.77L611.347 999.077L666.038 999.077L666.038 1053.77L611.347 1053.77ZM611.347 1109.23L611.347 1054.54L666.038 1054.54L666.038 1109.23L611.347 1109.23ZM666.808 1109.23L721.499 1109.23L721.499 1054.54L666.808 1054.54L666.808 1109.23ZM666.808 1053.77L721.499 1053.77L721.499 999.077L666.808 999.077L666.808 1053.77ZM666.808 998.307L721.499 998.307L721.499 943.616L666.808 943.616L666.808 998.307ZM666.808 942.845L721.499 942.845L721.499 888.154L666.808 888.154L666.808 942.845ZM666.808 887.384L721.499 887.384L721.499 832.693L666.808 832.693L666.808 887.384ZM666.808 831.922L721.499 831.922L721.499 777.231L666.808 777.231L666.808 831.922ZM666.808 776.461L721.499 776.461L721.499 721.77L666.808 721.77L666.808 776.461ZM666.808 720.999L721.499 720.999L721.499 666.308L666.808 666.308L666.808 720.999ZM666.808 665.538L721.499 665.538L721.499 610.847L666.808 610.847L666.808 665.538ZM666.808 610.076L721.499 610.076L721.499 555.385L666.808 555.385L666.808 610.076ZM666.808 554.615L721.499 554.615L721.499 499.924L666.808 499.924L666.808 554.615ZM666.808 499.153L721.499 499.153L721.499 444.462L666.808 444.462L666.808 499.153ZM666.808 443.692L721.499 443.692L721.499 389.001L666.808 389.001L666.808 443.692ZM666.808 388.23L721.499 388.23L721.499 333.539L666.808 333.539L666.808 388.23ZM666.808 332.769L721.499 332.769L721.499 278.078L666.808 278.078L666.808 332.769ZM666.808 277.307L721.499 277.307L721.499 222.616L666.808 222.616L666.808 277.307ZM666.808 221.846L721.499 221.846L721.499 167.155L666.808 167.155L666.808 221.846ZM666.808 166.384L721.499 166.384L721.499 111.693L666.808 111.693L666.808 166.384ZM666.808 110.923L721.499 110.923L721.499 56.2318L666.808 56.2318L666.808 110.923ZM666.808 55.4614L721.499 55.4614L721.499 0.77019L666.808 0.770193L666.808 55.4614ZM722.27 55.4614L722.27 0.77019L776.961 0.770188L776.961 55.4614L722.27 55.4614ZM722.27 110.923L722.27 56.2318L776.961 56.2318L776.961 110.923L722.27 110.923ZM722.27 166.384L722.27 111.693L776.961 111.693L776.961 166.384L722.27 166.384ZM722.27 221.846L722.27 167.155L776.961 167.155L776.961 221.846L722.27 221.846ZM722.27 277.307L722.27 222.616L776.961 222.616L776.961 277.307L722.27 277.307ZM722.27 332.769L722.27 278.078L776.961 278.078L776.961 332.769L722.27 332.769ZM722.27 388.23L722.27 333.539L776.961 333.539L776.961 388.23L722.27 388.23ZM722.27 443.692L722.27 389.001L776.961 389.001L776.961 443.692L722.27 443.692ZM722.27 499.153L722.27 444.462L776.961 444.462L776.961 499.153L722.27 499.153ZM722.27 554.615L722.27 499.924L776.961 499.924L776.961 554.615L722.27 554.615ZM722.27 610.076L722.27 555.385L776.961 555.385L776.961 610.076L722.27 610.076ZM722.27 665.538L722.27 610.847L776.961 610.847L776.961 665.538L722.27 665.538ZM722.27 720.999L722.27 666.308L776.961 666.308L776.961 720.999L722.27 720.999ZM722.27 776.461L722.27 721.77L776.961 721.77L776.961 776.461L722.27 776.461ZM722.27 831.922L722.27 777.231L776.961 777.231L776.961 831.922L722.27 831.922ZM722.27 887.384L722.27 832.693L776.961 832.693L776.961 887.384L722.27 887.384ZM722.27 942.845L722.27 888.154L776.961 888.154L776.961 942.845L722.27 942.845ZM722.27 998.307L722.27 943.616L776.961 943.616L776.961 998.307L722.27 998.307ZM722.27 1053.77L722.27 999.077L776.961 999.077L776.961 1053.77L722.27 1053.77ZM722.27 1109.23L722.27 1054.54L776.961 1054.54L776.961 1109.23L722.27 1109.23ZM777.731 1109.23L832.422 1109.23L832.422 1054.54L777.731 1054.54L777.731 1109.23ZM777.731 1053.77L832.422 1053.77L832.422 999.077L777.731 999.077L777.731 1053.77ZM777.731 998.307L832.422 998.307L832.422 943.616L777.731 943.616L777.731 998.307ZM777.731 942.845L832.422 942.845L832.422 888.154L777.731 888.154L777.731 942.845ZM777.731 887.384L832.422 887.384L832.422 832.693L777.731 832.693L777.731 887.384ZM777.731 831.922L832.422 831.922L832.422 777.231L777.731 777.231L777.731 831.922ZM777.731 776.461L832.422 776.461L832.422 721.77L777.731 721.77L777.731 776.461ZM777.731 720.999L832.422 720.999L832.422 666.308L777.731 666.308L777.731 720.999ZM777.731 665.538L832.422 665.538L832.422 610.847L777.731 610.847L777.731 665.538ZM777.731 610.076L832.422 610.076L832.422 555.385L777.731 555.385L777.731 610.076ZM777.731 554.615L832.422 554.615L832.422 499.924L777.731 499.924L777.731 554.615ZM777.731 499.153L832.422 499.153L832.422 444.462L777.731 444.462L777.731 499.153ZM777.731 443.692L832.422 443.692L832.422 389.001L777.731 389.001L777.731 443.692ZM777.731 388.23L832.422 388.23L832.422 333.539L777.731 333.539L777.731 388.23ZM777.731 332.769L832.422 332.769L832.422 278.078L777.731 278.078L777.731 332.769ZM777.731 277.307L832.422 277.307L832.422 222.616L777.731 222.616L777.731 277.307ZM777.731 221.846L832.422 221.846L832.422 167.155L777.731 167.155L777.731 221.846ZM777.731 166.384L832.422 166.384L832.422 111.693L777.731 111.693L777.731 166.384ZM777.731 110.923L832.422 110.923L832.422 56.2318L777.731 56.2318L777.731 110.923ZM777.731 55.4614L832.422 55.4614L832.422 0.770185L777.731 0.770188L777.731 55.4614ZM833.193 55.4614L833.193 0.770185L887.884 0.770183L887.884 55.4614L833.193 55.4614ZM833.193 110.923L833.193 56.2318L887.884 56.2318L887.884 110.923L833.193 110.923ZM833.193 166.384L833.193 111.693L887.884 111.693L887.884 166.384L833.193 166.384ZM833.193 221.846L833.193 167.155L887.884 167.155L887.884 221.846L833.193 221.846ZM833.193 277.307L833.193 222.616L887.884 222.616L887.884 277.307L833.193 277.307ZM833.193 332.769L833.193 278.078L887.884 278.078L887.884 332.769L833.193 332.769ZM833.193 388.23L833.193 333.539L887.884 333.539L887.884 388.23L833.193 388.23ZM833.193 443.692L833.193 389.001L887.884 389.001L887.884 443.692L833.193 443.692ZM833.193 499.153L833.193 444.462L887.884 444.462L887.884 499.153L833.193 499.153ZM833.193 554.615L833.193 499.924L887.884 499.924L887.884 554.615L833.193 554.615ZM833.193 610.076L833.193 555.385L887.884 555.385L887.884 610.076L833.193 610.076ZM833.193 665.538L833.193 610.847L887.884 610.847L887.884 665.538L833.193 665.538ZM833.193 720.999L833.193 666.308L887.884 666.308L887.884 720.999L833.193 720.999ZM833.193 776.461L833.193 721.77L887.884 721.77L887.884 776.461L833.193 776.461ZM833.193 831.922L833.193 777.231L887.884 777.231L887.884 831.922L833.193 831.922ZM833.193 887.384L833.193 832.693L887.884 832.693L887.884 887.384L833.193 887.384ZM833.193 942.845L833.193 888.154L887.884 888.154L887.884 942.845L833.193 942.845ZM833.193 998.307L833.193 943.616L887.884 943.616L887.884 998.307L833.193 998.307ZM833.193 1053.77L833.193 999.077L887.884 999.077L887.884 1053.77L833.193 1053.77ZM833.193 1109.23L833.193 1054.54L887.884 1054.54L887.884 1109.23L833.193 1109.23ZM888.654 1109.23L943.345 1109.23L943.345 1054.54L888.654 1054.54L888.654 1109.23ZM888.654 1053.77L943.345 1053.77L943.345 999.077L888.654 999.077L888.654 1053.77ZM888.654 998.307L943.345 998.307L943.345 943.616L888.654 943.616L888.654 998.307ZM888.654 942.845L943.345 942.845L943.345 888.154L888.654 888.154L888.654 942.845ZM888.654 887.384L943.345 887.384L943.345 832.693L888.654 832.693L888.654 887.384ZM888.654 831.922L943.345 831.922L943.345 777.231L888.654 777.231L888.654 831.922ZM888.654 776.461L943.345 776.461L943.345 721.77L888.654 721.77L888.654 776.461ZM888.654 720.999L943.345 720.999L943.345 666.308L888.654 666.308L888.654 720.999ZM888.654 665.538L943.345 665.538L943.345 610.847L888.654 610.847L888.654 665.538ZM888.654 610.076L943.345 610.076L943.345 555.385L888.654 555.385L888.654 610.076ZM888.654 554.615L943.345 554.615L943.345 499.924L888.654 499.924L888.654 554.615ZM888.654 499.153L943.345 499.153L943.345 444.462L888.654 444.462L888.654 499.153ZM888.654 443.692L943.345 443.692L943.345 389.001L888.654 389.001L888.654 443.692ZM888.654 388.23L943.345 388.23L943.345 333.539L888.654 333.539L888.654 388.23ZM888.654 332.769L943.345 332.769L943.345 278.078L888.654 278.078L888.654 332.769ZM888.654 277.307L943.345 277.307L943.345 222.616L888.654 222.616L888.654 277.307ZM888.654 221.846L943.345 221.846L943.345 167.155L888.654 167.155L888.654 221.846ZM888.654 166.384L943.345 166.384L943.345 111.693L888.654 111.693L888.654 166.384ZM888.654 110.923L943.345 110.923L943.345 56.2318L888.654 56.2318L888.654 110.923ZM888.654 55.4614L943.345 55.4614L943.345 0.77018L888.654 0.770183L888.654 55.4614ZM944.116 55.4614L944.116 0.77018L998.807 0.770178L998.807 55.4614L944.116 55.4614ZM944.116 110.923L944.116 56.2318L998.807 56.2318L998.807 110.923L944.116 110.923ZM944.116 166.384L944.116 111.693L998.807 111.693L998.807 166.384L944.116 166.384ZM944.116 221.846L944.116 167.155L998.807 167.155L998.807 221.846L944.116 221.846ZM944.116 277.307L944.116 222.616L998.807 222.616L998.807 277.307L944.116 277.307ZM944.116 332.769L944.116 278.078L998.807 278.078L998.807 332.769L944.116 332.769ZM944.116 388.23L944.116 333.539L998.807 333.539L998.807 388.23L944.116 388.23ZM944.116 443.692L944.116 389.001L998.807 389.001L998.807 443.692L944.116 443.692ZM944.116 499.153L944.116 444.462L998.807 444.462L998.807 499.153L944.116 499.153ZM944.116 554.615L944.116 499.924L998.807 499.924L998.807 554.615L944.116 554.615ZM944.116 610.076L944.116 555.385L998.807 555.385L998.807 610.076L944.116 610.076ZM944.116 665.538L944.116 610.847L998.807 610.847L998.807 665.538L944.116 665.538ZM944.116 720.999L944.116 666.308L998.807 666.308L998.807 720.999L944.116 720.999ZM944.116 776.461L944.116 721.77L998.807 721.77L998.807 776.461L944.116 776.461ZM944.116 831.922L944.116 777.231L998.807 777.231L998.807 831.922L944.116 831.922ZM944.116 887.384L944.116 832.693L998.807 832.693L998.807 887.384L944.116 887.384ZM944.116 942.845L944.116 888.154L998.807 888.154L998.807 942.845L944.116 942.845ZM944.116 998.307L944.116 943.616L998.807 943.616L998.807 998.307L944.116 998.307ZM944.116 1053.77L944.116 999.077L998.807 999.077L998.807 1053.77L944.116 1053.77ZM944.116 1109.23L944.116 1054.54L998.807 1054.54L998.807 1109.23L944.116 1109.23ZM999.577 1109.23L1054.27 1109.23L1054.27 1054.54L999.577 1054.54L999.577 1109.23ZM999.577 1053.77L1054.27 1053.77L1054.27 999.077L999.577 999.077L999.577 1053.77ZM999.577 998.307L1054.27 998.307L1054.27 943.615L999.577 943.616L999.577 998.307ZM999.577 942.845L1054.27 942.845L1054.27 888.154L999.577 888.154L999.577 942.845ZM999.577 887.384L1054.27 887.384L1054.27 832.693L999.577 832.693L999.577 887.384ZM999.577 831.922L1054.27 831.922L1054.27 777.231L999.577 777.231L999.577 831.922ZM999.577 776.461L1054.27 776.461L1054.27 721.77L999.577 721.77L999.577 776.461ZM999.577 720.999L1054.27 720.999L1054.27 666.308L999.577 666.308L999.577 720.999ZM999.577 665.538L1054.27 665.538L1054.27 610.847L999.577 610.847L999.577 665.538ZM999.577 610.076L1054.27 610.076L1054.27 555.385L999.577 555.385L999.577 610.076ZM999.577 554.615L1054.27 554.615L1054.27 499.924L999.577 499.924L999.577 554.615ZM999.577 499.153L1054.27 499.153L1054.27 444.462L999.577 444.462L999.577 499.153ZM999.577 443.692L1054.27 443.692L1054.27 389.001L999.577 389.001L999.577 443.692ZM999.577 388.23L1054.27 388.23L1054.27 333.539L999.577 333.539L999.577 388.23ZM999.577 332.769L1054.27 332.769L1054.27 278.078L999.577 278.078L999.577 332.769ZM999.577 277.307L1054.27 277.307L1054.27 222.616L999.577 222.616L999.577 277.307ZM999.577 221.846L1054.27 221.846L1054.27 167.155L999.577 167.155L999.577 221.846ZM999.577 166.384L1054.27 166.384L1054.27 111.693L999.577 111.693L999.577 166.384ZM999.577 110.923L1054.27 110.923L1054.27 56.2318L999.577 56.2318L999.577 110.923ZM999.577 55.4614L1054.27 55.4614L1054.27 0.770176L999.577 0.770178L999.577 55.4614ZM1055.04 55.4614L1055.04 0.770176L1109.73 0.770173L1109.73 55.4614L1055.04 55.4614ZM1055.04 110.923L1055.04 56.2318L1109.73 56.2318L1109.73 110.923L1055.04 110.923ZM1055.04 166.384L1055.04 111.693L1109.73 111.693L1109.73 166.384L1055.04 166.384ZM1055.04 221.846L1055.04 167.155L1109.73 167.155L1109.73 221.846L1055.04 221.846ZM1055.04 277.307L1055.04 222.616L1109.73 222.616L1109.73 277.307L1055.04 277.307ZM1055.04 332.769L1055.04 278.078L1109.73 278.078L1109.73 332.769L1055.04 332.769ZM1055.04 388.23L1055.04 333.539L1109.73 333.539L1109.73 388.23L1055.04 388.23ZM1055.04 443.692L1055.04 389.001L1109.73 389.001L1109.73 443.692L1055.04 443.692ZM1055.04 499.153L1055.04 444.462L1109.73 444.462L1109.73 499.153L1055.04 499.153ZM1055.04 554.615L1055.04 499.924L1109.73 499.924L1109.73 554.615L1055.04 554.615ZM1055.04 610.076L1055.04 555.385L1109.73 555.385L1109.73 610.076L1055.04 610.076ZM1055.04 665.538L1055.04 610.847L1109.73 610.847L1109.73 665.538L1055.04 665.538ZM1055.04 720.999L1055.04 666.308L1109.73 666.308L1109.73 720.999L1055.04 720.999ZM1055.04 776.461L1055.04 721.77L1109.73 721.77L1109.73 776.461L1055.04 776.461ZM1055.04 831.922L1055.04 777.231L1109.73 777.231L1109.73 831.922L1055.04 831.922ZM1055.04 887.384L1055.04 832.693L1109.73 832.693L1109.73 887.384L1055.04 887.384ZM1055.04 942.845L1055.04 888.154L1109.73 888.154L1109.73 942.845L1055.04 942.845ZM1055.04 998.307L1055.04 943.615L1109.73 943.615L1109.73 998.307L1055.04 998.307ZM1055.04 1053.77L1055.04 999.077L1109.73 999.077L1109.73 1053.77L1055.04 1053.77ZM1055.04 1109.23L1055.04 1054.54L1109.73 1054.54L1109.73 1109.23L1055.04 1109.23Z" fill="url(#paint0_linear_139_3023)"/>
<defs>
<linearGradient id="paint0_linear_139_3023" x1="46.9164" y1="159.712" x2="1083.05" y2="152.725" gradientUnits="userSpaceOnUse">
<stop stop-color="#F8F9FA"/>
<stop offset="0.245219" stop-color="#CED4DA" stop-opacity="0.5"/>
<stop offset="0.643329" stop-color="#CED4DA" stop-opacity="0.5"/>
<stop offset="0.991754" stop-color="#F8F9FA"/>
</linearGradient>
</defs>
</svg>
