<svg width="42" height="42" viewBox="0 0 42 42" fill="none" xmlns="http://www.w3.org/2000/svg">
<path d="M7.58325 22.1667L25.6666 3.5L23.9166 15.75L33.8333 19.8333L16.9166 37.3333L18.6666 26.25L7.58325 22.1667Z" />
<path d="M35.403 19.3873C35.3533 19.1769 35.2524 18.9821 35.1093 18.8201C34.9662 18.6581 34.7853 18.534 34.5827 18.4587L25.131 14.9133L27.5362 2.8826C27.5906 2.60307 27.5527 2.31341 27.4281 2.05733C27.3035 1.80125 27.099 1.59265 26.8454 1.463C26.5919 1.33335 26.303 1.28968 26.0225 1.3386C25.7419 1.38751 25.4849 1.52635 25.2902 1.73416L6.91517 21.4217C6.76593 21.5789 6.65797 21.7707 6.60093 21.9798C6.54389 22.189 6.53955 22.409 6.5883 22.6203C6.63705 22.8315 6.73737 23.0274 6.88029 23.1904C7.02322 23.3534 7.2043 23.4785 7.40735 23.5545L16.8623 27.0999L14.4637 39.1174C14.4092 39.397 14.4472 39.6866 14.5718 39.9427C14.6964 40.1988 14.9009 40.4074 15.1544 40.537C15.408 40.6667 15.6968 40.7104 15.9774 40.6614C16.2579 40.6125 16.515 40.4737 16.7097 40.2659L35.0847 20.5784C35.2312 20.4211 35.3369 20.2302 35.3924 20.0225C35.4479 19.8148 35.4515 19.5967 35.403 19.3873ZM17.9434 35.1094L19.6612 26.5158C19.7227 26.211 19.6739 25.8943 19.5237 25.6221C19.3735 25.3499 19.1315 25.1398 18.8409 25.0294L10.1718 21.7728L24.0548 6.89885L22.3387 15.4924C22.2772 15.7972 22.3259 16.1139 22.4761 16.3861C22.6264 16.6583 22.8684 16.8684 23.159 16.9788L31.8215 20.2273L17.9434 35.1094Z" fill="#7AE99D"/>
</svg>
