<svg width="42" height="42" viewBox="0 0 42 42" fill="none" xmlns="http://www.w3.org/2000/svg">
<path d="M3.26979 18.6923L10.8852 15.923L13.3083 9.34613L19.539 7.61536L25.0775 10.3846L27.1544 15.5769L32.0006 17.3077L33.039 20.423L38.5775 22.1538L41.0006 27L37.539 33.923L26.1159 33.5769V28.0384H28.1929L23.6929 22.5L19.1929 28.0384L21.2698 29.0769L20.5775 33.5769H6.73133L1.19287 25.9615L3.26979 18.6923Z" />
<path d="M34.0149 34.9736H24.9197V26.8377H25.8883L23.4899 24.1219L21.0916 26.8377H22.0602V34.9736H10.0942C4.61327 34.9736 0.154297 30.5145 0.154297 25.0336C0.154297 19.6685 4.42692 15.2825 9.74831 15.0997C9.88988 10.3162 13.8252 6.46826 18.6424 6.46826C20.9794 6.46826 23.189 7.38714 24.8639 9.05574C26.2484 10.4351 27.1196 12.1796 27.3815 14.0605C30.5109 14.2622 33.0695 16.5943 33.619 19.6178H33.9338C38.1808 19.6178 41.6614 23.036 41.6925 27.2377C41.7078 29.2999 40.9165 31.2415 39.4641 32.7046C38.0118 34.1678 36.0765 34.9736 34.0149 34.9736ZM27.3536 32.5397H34.0149C35.423 32.5397 36.7448 31.9893 37.7367 30.9898C38.7286 29.9906 39.2691 28.6644 39.2587 27.2557C39.2375 24.3862 36.8487 22.0516 33.9338 22.0516H31.2944V20.8347C31.2944 18.4355 29.3439 16.4832 26.9455 16.4801L25.0311 16.4987V15.2699C25.0311 13.5855 24.3617 11.9909 23.1461 10.7799C21.9305 9.56888 20.3311 8.90208 18.6424 8.90208C15.0781 8.90208 12.1782 11.8019 12.1782 15.3663V17.5276H10.0942C5.95541 17.5276 2.58819 20.8948 2.58819 25.0336C2.58819 29.1725 5.95541 32.5397 10.0942 32.5397H19.6264V29.2717H15.6953L23.49 20.445L31.2848 29.2717H27.3536V32.5397Z" fill="#7AE99D"/>
</svg>
