<svg width="43" height="42" viewBox="0 0 43 42" fill="none" xmlns="http://www.w3.org/2000/svg">
<g clip-path="url(#clip0_657_4021)">
<path d="M5.88533 3.46155H36.693L40.8469 7.96155L41.193 27.3462L36.693 32.5385H6.92379L2.07764 28.3846V8.65386L5.88533 3.46155Z" />
<path d="M19.5173 20.7483C19.6201 20.7799 19.7273 20.7961 19.8352 20.7961C20.0675 20.7959 20.2936 20.7231 20.4802 20.5882C20.6667 20.4534 20.8039 20.2637 20.8714 20.0472L24.1273 9.67114C24.211 9.40326 24.1821 9.11395 24.0469 8.86686C23.9116 8.61976 23.6812 8.43511 23.4062 8.35354C23.1312 8.27196 22.8342 8.30014 22.5805 8.43187C22.3268 8.5636 22.1373 8.7881 22.0535 9.05597L18.7976 19.4321C18.7561 19.5645 18.7418 19.7036 18.7555 19.8415C18.7693 19.9793 18.8107 20.1132 18.8775 20.2354C18.9444 20.3576 19.0353 20.4658 19.145 20.5538C19.2548 20.6418 19.3813 20.7079 19.5173 20.7483Z" fill="#7AE99D"/>
<path d="M15.0949 18.6987C15.2992 18.8911 15.573 18.9977 15.8572 18.9954C16.1414 18.9931 16.4133 18.8822 16.6143 18.6866C16.8154 18.4909 16.9295 18.2262 16.9321 17.9493C16.9347 17.6725 16.8256 17.4058 16.6282 17.2066L13.6946 14.349L16.6282 11.4871C16.8256 11.2879 16.9347 11.0212 16.9321 10.7443C16.9295 10.4675 16.8154 10.2028 16.6143 10.0071C16.4133 9.81146 16.1414 9.70055 15.8572 9.69828C15.573 9.696 15.2992 9.80255 15.0949 9.99496L11.3953 13.5987C11.2946 13.6967 11.2147 13.8131 11.1602 13.9413C11.1057 14.0694 11.0776 14.2067 11.0776 14.3454C11.0776 14.4841 11.1057 14.6215 11.1602 14.7496C11.2147 14.8777 11.2946 14.9942 11.3953 15.0922L15.0949 18.6987Z" fill="#7AE99D"/>
<path d="M26.2963 18.6987C26.397 18.7968 26.5165 18.8746 26.648 18.9277C26.7796 18.9808 26.9206 19.0081 27.063 19.0081C27.2054 19.0081 27.3464 18.9808 27.4779 18.9277C27.6095 18.8746 27.729 18.7968 27.8296 18.6987L31.5292 15.095C31.6299 14.9969 31.7098 14.8805 31.7643 14.7524C31.8188 14.6242 31.8469 14.4869 31.8469 14.3482C31.8469 14.2095 31.8188 14.0721 31.7643 13.944C31.7098 13.8159 31.6299 13.6995 31.5292 13.6014L27.8296 9.99772C27.6238 9.81466 27.3536 9.71585 27.0749 9.72181C26.7963 9.72777 26.5308 9.83805 26.3334 10.0297C26.1361 10.2214 26.0221 10.4798 26.0152 10.7512C26.0083 11.0225 26.109 11.2861 26.2963 11.4871L29.23 14.3461L26.2963 17.2037C26.1952 17.3017 26.115 17.4181 26.0602 17.5464C26.0055 17.6747 25.9773 17.8123 25.9773 17.9512C25.9773 18.0901 26.0055 18.2277 26.0602 18.3559C26.115 18.4842 26.1952 18.6007 26.2963 18.6987Z" fill="#7AE99D"/>
<path d="M34.0805 33.7655C36.2264 33.7629 38.2837 32.9092 39.8011 31.3918C41.3185 29.8744 42.1721 27.8172 42.1747 25.6712V10.1711C42.1721 8.02521 41.3185 5.96793 39.8011 4.45053C38.2837 2.93313 36.2264 2.07951 34.0805 2.0769H8.7871C6.64118 2.07951 4.58389 2.93313 3.0665 4.45053C1.5491 5.96793 0.695479 8.02521 0.692871 10.1711V25.6712C0.695479 27.8172 1.5491 29.8744 3.0665 31.3918C4.58389 32.9092 6.64118 33.7629 8.7871 33.7655H20.378V37.9688H15.0739C14.7938 37.9688 14.5253 38.0801 14.3273 38.2781C14.1293 38.4761 14.0181 38.7446 14.0181 39.0246C14.0181 39.3046 14.1293 39.5732 14.3273 39.7711C14.5253 39.9691 14.7938 40.0804 15.0739 40.0804H27.7938C28.0738 40.0804 28.3423 39.9691 28.5403 39.7711C28.7383 39.5732 28.8495 39.3046 28.8495 39.0246C28.8495 38.7446 28.7383 38.4761 28.5403 38.2781C28.3423 38.0801 28.0738 37.9688 27.7938 37.9688H22.4896V33.7655H34.0805ZM8.7871 4.18422H34.0805C35.6666 4.18608 37.1873 4.817 38.3089 5.93857C39.4304 7.06014 40.0613 8.58077 40.0632 10.1669V25.5108H2.80441V10.1711C2.80515 8.58427 3.43558 7.06254 4.55727 5.94006C5.67896 4.81758 7.20023 4.18608 8.7871 4.18422ZM3.15633 27.6209H39.7071C39.3032 28.7941 38.544 29.8124 37.535 30.5344C36.5259 31.2564 35.317 31.6462 34.0763 31.6497H8.7871C7.54758 31.6456 6.34003 31.256 5.33187 30.5349C4.3237 29.8138 3.56486 28.7968 3.16056 27.6251L3.15633 27.6209Z" fill="#7AE99D"/>
</g>
<defs>
<clipPath id="clip0_657_4021">
<rect width="41.5385" height="41.5385" fill="white" transform="translate(0.692871)"/>
</clipPath>
</defs>
</svg>
