<svg width="43" height="42" viewBox="0 0 43 42" fill="none" xmlns="http://www.w3.org/2000/svg">
<path d="M2.00049 7.96155H40.4236L40.7697 34.6154H2.34664L2.00049 7.96155Z"/>
<path d="M4.42882 36.0001H38.3411C39.352 35.9989 40.3212 35.5902 41.0361 34.8636C41.7509 34.137 42.153 33.1519 42.1542 32.1243V10.1066C42.153 9.07904 41.7509 8.0939 41.0361 7.3673C40.3212 6.6407 39.352 6.23199 38.3411 6.23083H4.42882C3.41788 6.23199 2.44866 6.6407 1.73381 7.3673C1.01896 8.0939 0.616861 9.07904 0.615723 10.1066L0.615723 32.1243C0.616861 33.1519 1.01896 34.137 1.73381 34.8636C2.44866 35.5902 3.41788 35.9989 4.42882 36.0001ZM38.3411 34.0209H4.42882C3.9341 34.0204 3.45981 33.8204 3.10999 33.4648C2.76017 33.1092 2.5634 32.6271 2.56284 32.1243V17.0335H40.2071V32.1243C40.2065 32.6271 40.0097 33.1092 39.6599 33.4648C39.3101 33.8204 38.8358 34.0204 38.3411 34.0209ZM4.42882 8.20995H38.3411C38.8358 8.21052 39.3101 8.41053 39.6599 8.7661C40.0097 9.12167 40.2065 9.60376 40.2071 10.1066V15.0544H2.56284V10.1066C2.5634 9.60376 2.76017 9.12167 3.10999 8.7661C3.45981 8.41053 3.9341 8.21052 4.42882 8.20995ZM18.2021 29.2381C18.2021 29.5005 18.0995 29.7522 17.9169 29.9378C17.7343 30.1234 17.4867 30.2276 17.2285 30.2276H7.33067C7.07247 30.2276 6.82484 30.1234 6.64226 29.9378C6.45969 29.7522 6.35712 29.5005 6.35712 29.2381C6.35712 28.9756 6.45969 28.7239 6.64226 28.5384C6.82484 28.3528 7.07247 28.2485 7.33067 28.2485H17.2285C17.4867 28.2485 17.7343 28.3528 17.9169 28.5384C18.0995 28.7239 18.2021 28.9756 18.2021 29.2381ZM33.4938 23.838C33.4034 23.7461 33.2961 23.6732 33.178 23.6235C33.0598 23.5737 32.9332 23.5481 32.8054 23.5481C32.6775 23.5481 32.5509 23.5737 32.4328 23.6235C32.3147 23.6732 32.2074 23.7461 32.117 23.838L28.7906 27.219C28.6081 27.4045 28.5055 27.6562 28.5055 27.9187C28.5055 28.1811 28.6081 28.4328 28.7906 28.6184L32.117 31.9994C32.2074 32.0913 32.3147 32.1641 32.4328 32.2139C32.5509 32.2636 32.6775 32.2892 32.8054 32.2892C32.9332 32.2892 33.0598 32.2636 33.178 32.2139C33.2961 32.1641 33.4034 32.0913 33.4938 31.9994L36.8201 28.6184C37.0027 28.4328 37.1053 28.1811 37.1053 27.9187C37.1053 27.6562 37.0027 27.4045 36.8201 27.219L33.4938 23.838Z" fill="#7AE99D"/>
<path d="M32.8054 29.9002L30.856 27.9187M4.42882 36.0001H38.3411C39.352 35.9989 40.3212 35.5902 41.0361 34.8636C41.7509 34.137 42.153 33.1519 42.1542 32.1243V10.1066C42.153 9.07904 41.7509 8.0939 41.0361 7.3673C40.3212 6.6407 39.352 6.23199 38.3411 6.23083H4.42882C3.41788 6.23199 2.44866 6.6407 1.73381 7.3673C1.01896 8.0939 0.616861 9.07904 0.615723 10.1066L0.615723 32.1243C0.616861 33.1519 1.01896 34.137 1.73381 34.8636C2.44866 35.5902 3.41788 35.9989 4.42882 36.0001ZM38.3411 34.0209H4.42882C3.9341 34.0204 3.45981 33.8204 3.10999 33.4648C2.76017 33.1092 2.5634 32.6271 2.56284 32.1243V17.0335H40.2071V32.1243C40.2065 32.6271 40.0097 33.1092 39.6599 33.4648C39.3101 33.8204 38.8358 34.0204 38.3411 34.0209ZM4.42882 8.20995H38.3411C38.8358 8.21052 39.3101 8.41053 39.6599 8.7661C40.0097 9.12167 40.2065 9.60376 40.2071 10.1066V15.0544H2.56284V10.1066C2.5634 9.60376 2.76017 9.12167 3.10999 8.7661C3.45981 8.41053 3.9341 8.21052 4.42882 8.20995ZM18.2021 29.2381C18.2021 29.5005 18.0995 29.7522 17.9169 29.9378C17.7343 30.1234 17.4867 30.2276 17.2285 30.2276H7.33067C7.07247 30.2276 6.82484 30.1234 6.64226 29.9378C6.45969 29.7522 6.35712 29.5005 6.35712 29.2381C6.35712 28.9756 6.45969 28.7239 6.64226 28.5384C6.82484 28.3528 7.07247 28.2485 7.33067 28.2485H17.2285C17.4867 28.2485 17.7343 28.3528 17.9169 28.5384C18.0995 28.7239 18.2021 28.9756 18.2021 29.2381ZM33.4938 23.838C33.4034 23.7461 33.2961 23.6732 33.178 23.6235C33.0598 23.5737 32.9332 23.5481 32.8054 23.5481C32.6775 23.5481 32.5509 23.5737 32.4328 23.6235C32.3147 23.6732 32.2074 23.7461 32.117 23.838L28.7906 27.219C28.6081 27.4045 28.5055 27.6562 28.5055 27.9187C28.5055 28.1811 28.6081 28.4328 28.7906 28.6184L32.117 31.9994C32.2074 32.0913 32.3147 32.1641 32.4328 32.2139C32.5509 32.2636 32.6775 32.2892 32.8054 32.2892C32.9332 32.2892 33.0598 32.2636 33.178 32.2139C33.2961 32.1641 33.4034 32.0913 33.4938 31.9994L36.8201 28.6184C37.0027 28.4328 37.1053 28.1811 37.1053 27.9187C37.1053 27.6562 37.0027 27.4045 36.8201 27.219L33.4938 23.838Z" stroke="#7AE99D" stroke-width="0.692308"/>
<path d="M27.6157 22.1539H38.6926V33.2308H27.6157V22.1539Z" />
</svg>
