<svg width="16" height="16" viewBox="0 0 16 16"  xmlns="http://www.w3.org/2000/svg">
<g clip-path="url(#clip0_33741_22725)">
<path fill-rule="evenodd" clip-rule="evenodd" d="M5.82804 1.87158C3.30641 2.7653 1.5 5.17192 1.5 7.99998C1.5 11.5898 4.41015 14.5 8 14.5C10.8282 14.5 13.2348 12.6935 14.1285 10.1717C13.3293 10.5426 12.4386 10.7498 11.5 10.7498C8.04822 10.7498 5.25 7.9516 5.25 4.49982C5.25 3.56132 5.45718 2.67066 5.82804 1.87158ZM0 7.99998C0 3.78256 3.26298 0.327951 7.40265 0.0219727L8.009 1.27869C7.22684 2.12589 6.75 3.25632 6.75 4.49982C6.75 7.12317 8.87665 9.24982 11.5 9.24982C12.7436 9.24982 13.8741 8.77292 14.7213 7.99067L15.978 8.59696C15.6722 12.7368 12.2175 16 8 16C3.58172 16 0 12.4183 0 7.99998Z" fill="#666666"/>
</g>
<defs>
<clipPath id="clip0_33741_22725">
<rect width="16" height="16" fill="white"/>
</clipPath>
</defs>
</svg>
