<svg width="12" height="13" viewBox="0 0 12 13"  xmlns="http://www.w3.org/2000/svg">
<path d="M10.1585 2.70938C9.39367 2.35844 8.57349 2.09988 7.71595 1.95179C7.70033 1.94894 7.68473 1.95608 7.67669 1.97036C7.57121 2.15797 7.45437 2.40272 7.37255 2.59509C6.4502 2.45701 5.53259 2.45701 4.62916 2.59509C4.54732 2.39844 4.42624 2.15797 4.32029 1.97036C4.31224 1.95655 4.29664 1.94941 4.28102 1.95179C3.42395 2.09941 2.60378 2.35796 1.83847 2.70938C1.83184 2.71223 1.82616 2.717 1.82239 2.72319C0.266696 5.04737 -0.159475 7.31442 0.0495901 9.55337C0.050536 9.56432 0.0566849 9.5748 0.065199 9.58146C1.0916 10.3352 2.08585 10.7928 3.06164 11.0961C3.07726 11.1009 3.0938 11.0952 3.10374 11.0823C3.33456 10.7671 3.54032 10.4348 3.71674 10.0852C3.72715 10.0648 3.71721 10.0405 3.69593 10.0324C3.36957 9.90859 3.0588 9.75764 2.75986 9.58622C2.73622 9.57242 2.73433 9.5386 2.75608 9.5224C2.81899 9.47527 2.88191 9.42622 2.94198 9.3767C2.95285 9.36766 2.96799 9.36575 2.98077 9.37146C4.94464 10.2681 7.07077 10.2681 9.01148 9.37146C9.02425 9.36527 9.0394 9.36718 9.05074 9.37622C9.11082 9.42575 9.17373 9.47527 9.23711 9.5224C9.25886 9.5386 9.25744 9.57242 9.2338 9.58622C8.93486 9.76097 8.62409 9.90859 8.29726 10.0319C8.27598 10.04 8.26651 10.0648 8.27692 10.0852C8.45713 10.4343 8.66288 10.7666 8.88945 11.0819C8.89891 11.0952 8.91593 11.1009 8.93155 11.0961C9.91207 10.7928 10.9063 10.3352 11.9327 9.58146C11.9417 9.5748 11.9474 9.56479 11.9483 9.55384C12.1985 6.96537 11.5292 4.71691 10.1741 2.72366C10.1708 2.717 10.1651 2.71223 10.1585 2.70938ZM4.01001 8.19008C3.41875 8.19008 2.93157 7.64726 2.93157 6.98062C2.93157 6.31398 3.4093 5.77115 4.01001 5.77115C4.61544 5.77115 5.0979 6.31874 5.08844 6.98062C5.08844 7.64726 4.6107 8.19008 4.01001 8.19008ZM7.99737 8.19008C7.40613 8.19008 6.91895 7.64726 6.91895 6.98062C6.91895 6.31398 7.39666 5.77115 7.99737 5.77115C8.60282 5.77115 9.08527 6.31874 9.07582 6.98062C9.07582 7.64726 8.60282 8.19008 7.99737 8.19008Z" />
</svg>
