<svg width="26" height="25" viewBox="0 0 26 25" xmlns="http://www.w3.org/2000/svg">
<path d="M9.40618 19.321C9.39405 19.321 9.41831 19.321 9.40618 19.321L16.2074 19.3211C21.4224 19.3211 25.65 14.9814 25.65 9.62823C25.65 4.68755 22.0393 0.610252 17.3829 0.0111829C16.675 -0.0798902 16.0352 0.394945 15.7938 1.08409L14.2708 5.43282H16.2074C18.4646 5.43282 20.2945 7.31117 20.2945 9.62823C20.2945 11.9453 18.4646 13.8236 16.2074 13.8236H12.5209C11.8075 13.8236 11.1708 14.2832 10.9294 14.9723L9.40618 19.321Z" />
<path d="M14.2708 5.43282H9.44258C4.22759 5.43282 0 9.77245 0 15.1257C0 19.2876 2.55534 22.8368 6.14335 24.2104C6.93046 24.5117 7.75971 24.0216 8.04394 23.2101L9.40618 19.321C7.16569 19.3009 5.35549 17.4303 5.35549 15.1257C5.35549 12.8086 7.18534 10.9302 9.44258 10.9302H11.1561C11.8695 10.9302 12.5061 10.4707 12.7475 9.7816L14.2708 5.43282Z" />
</svg>
