<svg width="44" height="44" viewBox="0 0 44 44" fill="none" xmlns="http://www.w3.org/2000/svg">
<path d="M28.0771 6.88464L33.6162 5.84656L38.4619 9.3075L36.7314 15.1923L41.2314 18.3075L41.9238 24.1923L36.7314 27.9999L38.1162 33.538L33.6162 37.6923L27.7314 36.9999L25.3076 41.4999H18.7314L15.9619 36.9999L10.4238 37.6923L5.57715 34.2303L7.30762 27.9999L2.46191 25.577V18.9999L6.96191 15.1923L5.57715 10.3466L10.4238 5.84656L15.9619 6.53796L19.0771 2.03796L25.3076 1.69226L28.0771 6.88464ZM21.8467 11.3846C16.1114 11.3846 11.4619 16.0341 11.4619 21.7694C11.462 27.5046 16.1115 32.1542 21.8467 32.1542C27.5818 32.1541 32.2313 27.5045 32.2314 21.7694C32.2314 16.0342 27.5819 11.3847 21.8467 11.3846Z" />
<path d="M42.4017 18.7923C42.355 18.4448 42.2066 18.1189 41.9752 17.8555C41.7437 17.5921 41.4395 17.403 41.1009 17.312L38.2676 16.5267C38.1896 16.5079 38.1178 16.469 38.0593 16.4141C38.0008 16.3591 37.9575 16.2899 37.9338 16.2132C37.7103 15.5678 37.4484 14.9362 37.1497 14.3218C37.1121 14.2513 37.0936 14.1721 37.0961 14.0922C37.0986 14.0123 37.122 13.9345 37.164 13.8664L38.6141 11.305C38.7873 11.0011 38.8675 10.6531 38.8447 10.3041C38.8219 9.95504 38.6972 9.62039 38.486 9.34161C37.2901 7.74307 35.8713 6.32414 34.273 5.12806C33.9943 4.9158 33.6591 4.79069 33.3095 4.76849C32.96 4.74629 32.6116 4.82798 32.3084 5.00328L29.7516 6.45082C29.6831 6.49251 29.605 6.51583 29.5249 6.51853C29.4447 6.52123 29.3652 6.50322 29.2941 6.46624C28.6789 6.16515 28.0458 5.90233 27.3983 5.67927C27.3227 5.65586 27.2545 5.61312 27.2004 5.55529C27.1463 5.49745 27.1083 5.42651 27.09 5.34947L26.3025 2.51442C26.212 2.17591 26.0235 1.87169 25.7607 1.64001C25.4978 1.40832 25.1723 1.25951 24.8251 1.21227C22.849 0.929243 20.8425 0.929243 18.8663 1.21227C18.5197 1.26027 18.1949 1.40915 17.9323 1.64038C17.6696 1.87161 17.4808 2.17498 17.3893 2.51272L16.6037 5.34841C16.585 5.42622 16.5462 5.49776 16.4912 5.55591C16.4362 5.61407 16.367 5.65682 16.2903 5.67992C15.6444 5.90351 15.0126 6.1659 14.3984 6.46567C14.3278 6.50284 14.2488 6.52112 14.1691 6.51875C14.0894 6.51638 14.0116 6.49342 13.9434 6.45212L11.3838 5.00426C11.0805 4.82872 10.7321 4.7468 10.3824 4.76882C10.0327 4.79084 9.69728 4.9158 9.41842 5.12798C7.82023 6.32505 6.40118 7.74421 5.20423 9.3425C4.99269 9.62159 4.86812 9.95686 4.8461 10.3064C4.82408 10.6559 4.90559 11.0041 5.08043 11.3076L6.52745 13.8672C6.56925 13.935 6.59272 14.0126 6.59556 14.0922C6.59841 14.1718 6.58053 14.2509 6.54368 14.3215C6.24264 14.9364 5.97961 15.5692 5.75607 16.2162C5.73268 16.2923 5.68977 16.3609 5.63163 16.4153C5.57349 16.4696 5.50213 16.5078 5.42466 16.526L2.58862 17.3121C2.25082 17.4039 1.94752 17.5932 1.7165 17.8562C1.48548 18.1192 1.33695 18.4444 1.28941 18.7912C1.00639 20.7674 1.00639 22.7738 1.28941 24.7499C1.3367 25.0965 1.4853 25.4213 1.71658 25.6837C1.94785 25.9461 2.25148 26.1343 2.58935 26.2247L5.42393 27.0127C5.50194 27.0312 5.57371 27.0699 5.63208 27.1249C5.69045 27.1799 5.73338 27.2492 5.75656 27.3259C5.97939 27.9708 6.2415 28.6014 6.54141 29.2142C6.57899 29.2852 6.59757 29.3648 6.59534 29.4451C6.59311 29.5255 6.57014 29.6039 6.52867 29.6727L5.08059 32.2319C4.90532 32.535 4.82361 32.8832 4.84576 33.2326C4.8679 33.5821 4.99291 33.9172 5.20504 34.1958C6.40083 35.7951 7.82017 37.2143 9.41955 38.41C9.69822 38.6214 10.0329 38.746 10.382 38.7684C10.731 38.7908 11.0789 38.71 11.3823 38.536L13.9418 37.0883C14.0103 37.0467 14.0883 37.0234 14.1684 37.0207C14.2485 37.018 14.328 37.036 14.3991 37.0729C15.0127 37.3725 15.6439 37.6342 16.2894 37.8567C16.3661 37.8803 16.4353 37.9233 16.4904 37.9816C16.5454 38.0399 16.5845 38.1115 16.6037 38.1893L17.3896 41.0246C17.4803 41.3629 17.6691 41.6669 17.9321 41.8982C18.1951 42.1295 18.5207 42.2778 18.8678 42.3246C20.843 42.6098 22.849 42.6098 24.8242 42.3246C25.1717 42.2786 25.4977 42.1305 25.7608 41.8989C26.0239 41.6674 26.2123 41.3629 26.302 41.0241L27.0899 38.1904C27.1084 38.1128 27.1467 38.0412 27.2011 37.9828C27.2555 37.9243 27.3241 37.8809 27.4002 37.8568C28.0461 37.635 28.6776 37.3736 29.2913 37.074C29.3624 37.0364 29.4419 37.0178 29.5223 37.0201C29.6027 37.0223 29.6811 37.0453 29.7499 37.0867L32.3113 38.5368C32.6146 38.7103 32.9623 38.7908 33.311 38.768C33.6598 38.7453 33.9941 38.6204 34.2723 38.4089C35.8719 37.2142 37.291 35.7953 38.4858 34.1957C38.6977 33.917 38.8228 33.582 38.8454 33.2325C38.868 32.8831 38.7871 32.5348 38.6129 32.231L37.1636 29.6715C37.1219 29.6036 37.0986 29.5259 37.0962 29.4462C37.0938 29.3665 37.1123 29.2875 37.1499 29.2172C37.4496 28.6034 37.7114 27.9719 37.9339 27.3261C37.9575 27.2495 38.0007 27.1803 38.0591 27.1254C38.1174 27.0704 38.1891 27.0316 38.267 27.0126L41.1009 26.2248C41.4395 26.1351 41.7438 25.9469 41.9753 25.6841C42.2069 25.4214 42.3552 25.0958 42.4017 24.7486C42.6869 22.7734 42.6869 20.7675 42.4017 18.7923ZM41.1052 24.5635C41.0941 24.658 41.0544 24.7469 40.9914 24.8182C40.9284 24.8895 40.8451 24.9398 40.7527 24.9625L40.7507 24.9631L37.915 25.7513C37.6335 25.828 37.375 25.9726 37.1625 26.1726C36.9499 26.3726 36.7898 26.6217 36.6962 26.8981C36.4913 27.4933 36.2501 28.0753 35.9741 28.641C35.8433 28.9029 35.7794 29.1932 35.7882 29.4858C35.797 29.7784 35.8783 30.0643 36.0246 30.3179L37.4719 32.874C37.5212 32.9566 37.5443 33.0521 37.5382 33.1481C37.5321 33.244 37.497 33.3359 37.4376 33.4115C36.3176 34.9109 34.9873 36.2411 33.4878 37.361C33.4127 37.42 33.3216 37.455 33.2263 37.4613C33.131 37.4675 33.0361 37.4449 32.9539 37.3963L30.3932 35.9465C30.1393 35.8019 29.8539 35.7218 29.5619 35.7132C29.2698 35.7046 28.9802 35.7678 28.7182 35.8971C28.1515 36.1738 27.5683 36.4153 26.9718 36.62C26.696 36.7141 26.4475 36.8746 26.2481 37.0872C26.0488 37.2998 25.9047 37.5581 25.8285 37.8395L25.0396 40.6768C25.0169 40.7694 24.9663 40.8527 24.8946 40.9157C24.823 40.9786 24.7338 41.0181 24.6391 41.0288C22.7867 41.2963 20.9056 41.2963 19.0532 41.0288C18.9582 41.0175 18.8689 40.9776 18.7972 40.9144C18.7254 40.8511 18.6746 40.7676 18.6514 40.6748L17.8654 37.8388C17.7886 37.5573 17.6439 37.2989 17.444 37.0864C17.244 36.8738 16.995 36.7136 16.7187 36.6197C16.1224 36.4143 15.5393 36.1725 14.9726 35.8957C14.7107 35.767 14.4211 35.7045 14.1294 35.7136C13.8377 35.7226 13.5526 35.8031 13.2992 35.9478L10.7391 37.3958C10.6567 37.4448 10.5613 37.4676 10.4656 37.4613C10.3699 37.455 10.2784 37.4199 10.203 37.3606C8.70407 36.2399 7.37391 34.9096 6.25332 33.4105C6.19438 33.3354 6.1597 33.244 6.1539 33.1487C6.14811 33.0534 6.17146 32.9585 6.22087 32.8768L7.67057 30.3159C7.81512 30.0621 7.89522 29.7766 7.90385 29.4846C7.91247 29.1926 7.84937 28.9029 7.72006 28.641C7.44365 28.0764 7.20203 27.4955 6.99654 26.9015C6.90389 26.6236 6.74376 26.3731 6.53052 26.1723C6.31727 25.9716 6.05757 25.8268 5.77465 25.7511L2.93813 24.9625C2.84577 24.9393 2.76261 24.8887 2.69964 24.8173C2.63668 24.7458 2.59686 24.657 2.58546 24.5624C2.32037 22.7107 2.32037 20.8306 2.58546 18.9788C2.59687 18.8834 2.63681 18.7938 2.70004 18.7216C2.76328 18.6493 2.84686 18.5979 2.93983 18.574L5.77465 17.7882C6.05696 17.7126 6.31616 17.5683 6.52908 17.3682C6.74199 17.168 6.90199 16.9182 6.99476 16.6411C7.20092 16.0447 7.44347 15.4616 7.72103 14.895C7.85009 14.6331 7.91264 14.3434 7.90318 14.0516C7.89371 13.7597 7.81251 13.4747 7.66675 13.2217L6.22038 10.6625C6.17016 10.5805 6.14634 10.4851 6.15214 10.3891C6.15795 10.2932 6.1931 10.2013 6.25283 10.126C7.37448 8.62832 8.70419 7.29847 10.2017 6.17668C10.2766 6.11658 10.3682 6.08108 10.4641 6.07501C10.5599 6.06894 10.6553 6.0926 10.7372 6.14277L13.3 7.59234C13.5531 7.73699 13.8379 7.8172 14.1294 7.82592C14.4208 7.83463 14.7099 7.77158 14.9712 7.64231C15.5376 7.36598 16.1201 7.12406 16.7155 6.91789C16.9928 6.82523 17.2428 6.66548 17.4434 6.45287C17.644 6.24026 17.789 5.98137 17.8654 5.69922L18.6506 2.86402C18.6742 2.77101 18.7253 2.68728 18.7972 2.62379C18.8692 2.5603 18.9586 2.52 19.0538 2.50818C20.9055 2.2432 22.7855 2.2432 24.6372 2.50818C24.7325 2.51943 24.822 2.55943 24.894 2.62284C24.9659 2.68624 25.0168 2.77006 25.04 2.86312L25.8282 5.70093C25.9042 5.98236 26.0485 6.24069 26.2482 6.45298C26.448 6.66528 26.6971 6.82497 26.9734 6.91789C27.5703 7.1237 28.154 7.36621 28.7211 7.64402C28.9831 7.77274 29.2726 7.83529 29.5644 7.82619C29.8562 7.8171 30.1413 7.73664 30.3948 7.59185L32.953 6.14301C33.0347 6.09281 33.1298 6.06905 33.2255 6.07498C33.3212 6.0809 33.4127 6.11622 33.4875 6.17611C34.9856 7.29703 36.3154 8.62675 37.4364 10.1248C37.4965 10.2 37.5322 10.2918 37.5387 10.3879C37.5452 10.484 37.5222 10.5798 37.4727 10.6625L36.0246 13.2203C35.8782 13.4736 35.7967 13.7593 35.7877 14.0517C35.7786 14.3442 35.8421 14.6344 35.9726 14.8962C36.2482 15.463 36.4897 16.0457 36.6959 16.6412C36.7897 16.9178 36.95 17.1671 37.1628 17.3672C37.3756 17.5672 37.6344 17.7118 37.9163 17.7882L40.7495 18.5736C40.8429 18.5968 40.9269 18.6479 40.9905 18.7201C41.054 18.7923 41.0941 18.8821 41.1054 18.9776C41.3728 20.83 41.3728 22.7112 41.1052 24.5635ZM21.8464 10.6896C15.7357 10.6896 10.7641 15.66 10.7641 21.7696C10.7641 27.8792 15.7356 32.8497 21.8464 32.8497C27.9572 32.8497 32.9264 27.8792 32.9264 21.7693C32.9264 15.6595 27.9561 10.6896 21.8464 10.6896ZM21.8464 31.5403C19.914 31.5402 18.0251 30.9672 16.4184 29.8936C14.8117 28.82 13.5595 27.294 12.82 25.5087C12.0805 23.7234 11.887 21.7589 12.264 19.8636C12.641 17.9683 13.5715 16.2274 14.9379 14.861C16.3043 13.4946 18.0452 12.564 19.9404 12.187C21.8356 11.81 23.8001 12.0034 25.5854 12.7429C27.3706 13.4823 28.8966 14.7346 29.9702 16.3413C31.0438 17.948 31.6169 19.8369 31.617 21.7693C31.6138 24.3597 30.5834 26.8431 28.7517 28.6748C26.9201 30.5065 24.4367 31.5369 21.8464 31.5401V31.5403Z" fill="#7AE99D" stroke="#7AE99D" stroke-width="1.10769"/>
</svg>
