<svg width="12" height="13" viewBox="0 0 12 13" xmlns="http://www.w3.org/2000/svg">
<g clip-path="url(#clip0_33757_32366)">
<path fill-rule="evenodd" clip-rule="evenodd" d="M6.00496 0.631836C2.68437 0.631836 0 3.336 0 6.68142C0 9.35559 1.71997 11.6192 4.10603 12.4204C4.40435 12.4806 4.51362 12.2902 4.51362 12.1301C4.51362 11.9898 4.50378 11.5091 4.50378 11.0082C2.83335 11.3688 2.4855 10.2871 2.4855 10.2871C2.21705 9.58594 1.81929 9.40574 1.81929 9.40574C1.27255 9.03515 1.85911 9.03515 1.85911 9.03515C2.46558 9.07522 2.78381 9.65612 2.78381 9.65612C3.32059 10.5775 4.18555 10.3172 4.53353 10.1569C4.58319 9.76625 4.74237 9.49584 4.91138 9.34563C3.57908 9.20539 2.17734 8.68459 2.17734 6.36085C2.17734 5.69981 2.4158 5.15897 2.79365 4.73835C2.73403 4.58815 2.5252 3.96705 2.85338 3.13577C2.85338 3.13577 3.36042 2.97549 4.50366 3.75674C4.99313 3.62432 5.4979 3.55696 6.00496 3.55639C6.512 3.55639 7.02886 3.62657 7.50614 3.75674C8.64951 2.97549 9.15655 3.13577 9.15655 3.13577C9.48473 3.96705 9.27577 4.58815 9.21616 4.73835C9.60396 5.15897 9.83259 5.69981 9.83259 6.36085C9.83259 8.68459 8.43085 9.19531 7.0886 9.34563C7.30739 9.53591 7.49619 9.89642 7.49619 10.4674C7.49619 11.2786 7.48635 11.9297 7.48635 12.1299C7.48635 12.2902 7.59575 12.4806 7.89395 12.4205C10.28 11.6191 12 9.35559 12 6.68142C12.0098 3.336 9.3156 0.631836 6.00496 0.631836Z" />
</g>
<defs>
<clipPath id="clip0_33757_32366">
<rect width="12" height="12" fill="white" transform="translate(0 0.631836)"/>
</clipPath>
</defs>
</svg>
