<svg width="50" height="50" viewBox="0 0 50 50" fill="none" xmlns="http://www.w3.org/2000/svg">
<g clip-path="url(#clip0_660_434)">
<rect x="2" y="2" width="46" height="46" rx="23" />
<path d="M25 1C11.7288 1 1 11.7288 1 25C1 38.2712 11.7288 49 25 49C38.2712 49 49 38.2712 49 25C49 11.7288 38.2712 1 25 1ZM17.7558 4.26871C16.4896 6.0454 15.4098 7.92025 14.5067 9.88344H9.0589C11.4344 7.37055 14.4086 5.42699 17.7558 4.26871ZM7.3411 11.9252H13.6429C12.1607 15.7436 11.346 19.8172 11.2282 23.9791H3.07117C3.2773 19.4736 4.82822 15.3215 7.3411 11.9252ZM7.3411 38.0748C4.82822 34.6785 3.2773 30.5264 3.07117 26.0209H11.2282C11.346 30.1828 12.1902 34.2564 13.6822 38.0748H7.3411ZM9.0589 40.1166H14.5558C15.4687 42.0798 16.5485 43.9742 17.7951 45.7509C14.438 44.5926 11.4442 42.6393 9.0589 40.1166ZM23.9791 46.9386C22.9583 46.8896 21.9472 46.7718 20.9656 46.5951C19.3362 44.5828 17.9423 42.4135 16.8135 40.1264H23.9791V46.9386ZM23.9791 38.0748H15.881C14.3006 34.2663 13.3975 30.1926 13.2699 26.0209H23.9791V38.0748ZM23.9791 23.9791H13.2699C13.3975 19.8172 14.2908 15.7337 15.8613 11.9252H23.9791V23.9791ZM23.989 9.88344H23.9791H16.7939C17.9325 7.57669 19.3264 5.40736 20.9656 3.41472C21.9472 3.22822 22.9583 3.12025 23.989 3.07117V9.88344ZM42.6589 11.9252C45.1718 15.3215 46.7325 19.4638 46.9288 23.9791H38.7718C38.654 19.8172 37.8098 15.7436 36.3178 11.9252H42.6589ZM40.9411 9.88344H35.4442C34.5313 7.92025 33.4515 6.02577 32.1951 4.24908C35.562 5.40736 38.5558 7.36074 40.9411 9.88344ZM26.0209 3.07117C27.0417 3.12025 28.0528 3.23804 29.0344 3.41472C30.6638 5.42699 32.0577 7.59632 33.1865 9.88344H26.0209V3.07117ZM26.0209 11.9252H34.119C35.6994 15.7239 36.6025 19.8074 36.7301 23.9791H26.0209V11.9252ZM26.0209 26.0209H36.7301C36.6025 30.1828 35.7092 34.2663 34.1386 38.0748H26.0209V26.0209ZM26.011 46.9288V40.1166H26.0209H33.2061C32.0675 42.4233 30.6736 44.5926 29.0344 46.5853C28.0528 46.7718 27.0417 46.8798 26.011 46.9288ZM32.1951 45.7509C33.4417 43.9742 34.5215 42.0798 35.4245 40.1166H40.9509C38.5558 42.6393 35.562 44.5926 32.1951 45.7509ZM36.2883 38.0748C37.7607 34.2564 38.5951 30.1828 38.762 26.0209H46.9386C46.7325 30.5264 45.1816 34.6785 42.6687 38.0748H36.2883Z" fill="#7AE99D" stroke="#7AE99D"/>
</g>
<defs>
<clipPath id="clip0_660_434">
<rect width="50" height="50" fill="white"/>
</clipPath>
</defs>
</svg>
