<svg width="24" height="24" viewBox="0 0 24 24" fill="none" xmlns="http://www.w3.org/2000/svg">
<rect width="24" height="24" rx="4" fill="#DFE5EC"/>
<path d="M17.4869 11.3856C17.468 11.3055 17.4295 11.2313 17.375 11.1696C17.3205 11.1078 17.2516 11.0605 17.1744 11.0319L13.5738 9.68125L14.49 5.09812C14.5108 4.99164 14.4963 4.88129 14.4489 4.78374C14.4014 4.68618 14.3235 4.60671 14.2269 4.55732C14.1303 4.50793 14.0202 4.4913 13.9134 4.50993C13.8065 4.52857 13.7086 4.58146 13.6344 4.66062L6.6344 12.1606C6.57754 12.2205 6.53641 12.2936 6.51469 12.3733C6.49296 12.4529 6.4913 12.5368 6.50987 12.6172C6.52845 12.6977 6.56666 12.7723 6.62111 12.8344C6.67556 12.8965 6.74454 12.9442 6.8219 12.9731L10.4238 14.3237L9.51002 18.9019C9.48927 19.0084 9.50372 19.1187 9.55119 19.2163C9.59866 19.3138 9.67657 19.3933 9.77316 19.4427C9.86976 19.4921 9.97979 19.5087 10.0867 19.4901C10.1935 19.4714 10.2915 19.4185 10.3656 19.3394L17.3656 11.8394C17.4215 11.7795 17.4617 11.7067 17.4829 11.6276C17.504 11.5485 17.5054 11.4654 17.4869 11.3856ZM10.8356 17.375L11.49 14.1012C11.5134 13.9851 11.4949 13.8645 11.4377 13.7608C11.3804 13.6571 11.2882 13.5771 11.1775 13.535L7.87502 12.2944L13.1638 6.62812L12.51 9.90187C12.4866 10.018 12.5052 10.1386 12.5624 10.2423C12.6196 10.346 12.7118 10.426 12.8225 10.4681L16.1225 11.7056L10.8356 17.375Z" fill="#6C757D"/>
</svg>
