<svg width="89" height="25" viewBox="0 0 89 25"  xmlns="http://www.w3.org/2000/svg">
<path d="M9.91848 19.8776C9.90568 19.8776 9.93126 19.8776 9.91848 19.8776L17.0901 19.8776C22.5891 19.8776 27.047 15.413 27.047 9.90559C27.047 4.82258 23.2396 0.627832 18.3296 0.011505C17.5832 -0.0821916 16.9085 0.406322 16.654 1.11532L15.048 5.58932H17.0901C19.4703 5.58932 21.3998 7.52178 21.3998 9.90559C21.3998 12.2894 19.4703 14.2218 17.0901 14.2218H13.2028C12.4505 14.2218 11.7792 14.6946 11.5246 15.4036L9.91848 19.8776Z" />
<path d="M15.048 5.58932H9.95685C4.45784 5.58932 0 10.054 0 15.5614C0 19.8432 2.69451 23.4947 6.47793 24.9078C7.30792 25.2178 8.18233 24.7136 8.48204 23.8787L9.91848 19.8776C7.55596 19.8569 5.64717 17.9324 5.64717 15.5614C5.64717 13.1776 7.57668 11.2451 9.95685 11.2451H11.7637C12.5159 11.2451 13.1873 10.7723 13.4418 10.0634L15.048 5.58932Z" />
<path d="M38.7916 22.8544C37.3962 22.8544 36.1509 22.5246 35.0557 21.865C33.9605 21.1876 33.095 20.2696 32.4591 19.1108C31.8232 17.9521 31.5053 16.6686 31.5053 15.2604C31.5053 13.8343 31.8232 12.5508 32.4591 11.4099C33.095 10.269 33.9605 9.35985 35.0557 8.68245C36.1685 8.00505 37.405 7.66635 38.7651 7.66635C39.8603 7.66635 40.8318 7.88918 41.6797 8.33484C42.2691 8.6262 42.7725 9.00023 43.1899 9.45694V3.20794C43.1899 2.87914 43.4561 2.61259 43.7844 2.61259H46.0664C46.3947 2.61259 46.6609 2.87914 46.6609 3.20794V22.5335H43.3754V20.9326C43.3754 20.9326 42.5628 21.8115 41.6797 22.2394C40.7965 22.6494 39.8338 22.8544 38.7916 22.8544ZM39.1626 19.6456C39.9574 19.6456 40.6552 19.4585 41.2557 19.0841C41.8563 18.7098 42.3244 18.1928 42.66 17.5332C43.0133 16.8736 43.1899 16.116 43.1899 15.2604C43.1899 14.4225 43.0133 13.6738 42.66 13.0142C42.3244 12.3368 41.8563 11.811 41.2557 11.4366C40.6552 11.0623 39.9574 10.8751 39.1626 10.8751C38.3853 10.8751 37.6876 11.0712 37.0694 11.4634C36.4512 11.8377 35.9654 12.3547 35.6121 13.0142C35.2765 13.656 35.1087 14.4047 35.1087 15.2604C35.1087 16.116 35.2765 16.8736 35.6121 17.5332C35.9654 18.1928 36.4512 18.7098 37.0694 19.0841C37.6876 19.4585 38.3853 19.6456 39.1626 19.6456Z" />
<path d="M49.0952 22.5335V7.98723H52.5661V22.5335H49.0952ZM49.0952 6.35612V3.20794C49.0952 2.87914 49.3613 2.61259 49.6896 2.61259H51.9717C52.3 2.61259 52.5661 2.87914 52.5661 3.20794V6.35612H49.0952Z" />
<path d="M61.5469 22.6939C59.9219 22.6939 58.6589 22.2483 57.758 21.357C56.8749 20.4478 56.4333 19.1732 56.4333 17.5332V11.1157H53.9426V7.98723H54.2076C54.9142 7.98723 55.4617 7.80005 55.8503 7.4257C56.2389 7.05134 56.4333 6.50764 56.4333 5.79459V5.26688C56.4333 4.93808 56.6994 4.67153 57.0277 4.67153H59.3098C59.6381 4.67153 59.9042 4.93808 59.9042 5.26688V7.98723V11.1157V17.346C59.9042 17.8274 59.9837 18.2374 60.1427 18.5761C60.3193 18.9148 60.5843 19.1732 60.9375 19.3515C61.3085 19.5298 61.7766 19.6189 62.3418 19.6189C62.4655 19.6189 62.6068 19.61 62.7657 19.5922C62.9424 19.5743 63.1102 19.5565 63.2692 19.5387V22.5335C63.0219 22.5692 62.7393 22.6048 62.4213 22.6405C62.1033 22.6761 61.8119 22.6939 61.5469 22.6939Z" />
<path d="M70.4694 22.6939C68.8443 22.6939 67.5814 22.2483 66.6805 21.357C65.7973 20.4478 65.3557 19.1732 65.3557 17.5332V11.1157H59.9042V7.98723H62.8451H63.1301C63.8366 7.98723 64.3842 7.80005 64.7728 7.4257C65.1614 7.05134 65.3557 6.50764 65.3557 5.79459V5.26688C65.3557 4.93808 65.6219 4.67153 65.9502 4.67153H68.2322C68.5605 4.67153 68.8267 4.93808 68.8267 5.26688V7.98723H72.1386V11.1157H68.8267V17.346C68.8267 17.8274 68.9062 18.2374 69.0651 18.5761C69.2418 18.9148 69.5067 19.1732 69.86 19.3515C70.2309 19.5298 70.699 19.6189 71.2643 19.6189C71.3879 19.6189 71.5292 19.61 71.6882 19.5922C71.8649 19.5743 72.0327 19.5565 72.1916 19.5387V22.5335C71.9443 22.5692 71.6617 22.6048 71.3438 22.6405C71.0258 22.6761 70.7344 22.6939 70.4694 22.6939Z" />
<path d="M80.9671 22.8544C79.554 22.8544 78.2646 22.5246 77.0987 21.865C75.9506 21.2054 75.0321 20.3052 74.3432 19.1643C73.672 18.0234 73.3363 16.7221 73.3363 15.2604C73.3363 13.7986 73.672 12.4973 74.3432 11.3564C75.0321 10.2155 75.9506 9.31529 77.0987 8.65571C78.2469 7.99614 79.5364 7.66635 80.9671 7.66635C82.3802 7.66635 83.6609 7.99614 84.809 8.65571C85.9572 9.31529 86.8668 10.2155 87.5381 11.3564C88.227 12.4795 88.5714 13.7808 88.5714 15.2604C88.5714 16.7221 88.227 18.0234 87.5381 19.1643C86.8492 20.3052 85.9307 21.2054 84.7825 21.865C83.6344 22.5246 82.3626 22.8544 80.9671 22.8544ZM80.9671 19.6456C81.7443 19.6456 82.4244 19.4585 83.0073 19.0841C83.6079 18.7098 84.076 18.1928 84.4116 17.5332C84.7648 16.8558 84.9415 16.0982 84.9415 15.2604C84.9415 14.4047 84.7648 13.656 84.4116 13.0142C84.076 12.3547 83.6079 11.8377 83.0073 11.4634C82.4244 11.0712 81.7443 10.8751 80.9671 10.8751C80.1723 10.8751 79.4745 11.0712 78.8739 11.4634C78.2734 11.8377 77.7965 12.3547 77.4432 13.0142C77.1076 13.656 76.9398 14.4047 76.9398 15.2604C76.9398 16.0982 77.1076 16.8558 77.4432 17.5332C77.7965 18.1928 78.2734 18.7098 78.8739 19.0841C79.4745 19.4585 80.1723 19.6456 80.9671 19.6456Z" />
</svg>
