<svg width="12" height="13" viewBox="0 0 12 13"  xmlns="http://www.w3.org/2000/svg">
<path d="M11.9998 6.54612C11.9998 8.13578 11.7333 9.42525 11.4046 9.42525C11.0759 9.42525 10.8096 8.13612 10.8096 6.54612C10.8096 4.95611 11.076 3.66699 11.4046 3.66699C11.7332 3.66699 11.9998 4.956 11.9998 6.54612Z" />
<path d="M10.4816 6.54591C10.4816 8.32057 9.72396 9.75978 8.78938 9.75978C7.85479 9.75978 7.09717 8.32057 7.09717 6.54591C7.09717 4.77125 7.85468 3.33203 8.78926 3.33203C9.72385 3.33203 10.4815 4.77079 10.4815 6.54591" />
<path d="M6.76872 6.54569C6.76872 8.43105 5.25347 9.95942 3.38442 9.95942C1.51536 9.95942 0 8.4307 0 6.54569C0 4.66067 1.51525 3.13184 3.38442 3.13184C5.25359 3.13184 6.76872 4.66033 6.76872 6.54569Z" />
</svg>
