<svg width="43" height="42" viewBox="0 0 43 42" fill="none" xmlns="http://www.w3.org/2000/svg">
<g clip-path="url(#clip0_660_422)">
<path d="M10.5771 10.7308L18.5387 10.0385L19.231 2.76929H26.8464L28.231 9.69236L40.3464 10.7308L40.6925 19.0385H33.7695L34.1156 27.6924L40.6925 28.3847V39.1154H28.231L26.5002 32.8847L20.2695 32.1924L18.1925 39.4616L10.231 38.7693L9.88484 28.0385L6.07715 28.3847L1.57715 24.9231L2.61561 19.7308L6.4233 17.6539L9.88484 19.0385L10.5771 10.7308Z" />
<path d="M37.8011 9.16286H29.0047C29.249 8.552 29.249 7.94114 29.249 7.33028C29.249 3.42078 25.7061 0.488653 21.7966 1.34386C19.2309 1.83254 17.2762 4.03164 16.9097 6.71942C16.7875 7.57463 16.9097 8.42983 17.154 9.28503H12.7558C10.6789 9.28503 8.84633 10.9954 8.84633 13.1945V17.5927C8.23547 17.3484 7.62461 17.3484 7.01375 17.3484C3.10425 17.3484 0.172125 20.8914 1.02733 24.8009C1.51602 27.3665 3.71511 29.3212 6.40289 29.5656C7.2581 29.6877 8.1133 29.5656 8.9685 29.3212V36.6516C8.9685 38.7285 10.6789 40.5611 12.878 40.5611H18.7423C19.4753 40.5611 19.964 39.7058 19.4753 39.095C18.9866 38.362 18.8644 37.6289 18.8644 36.7737C18.8644 34.2081 21.1857 32.009 23.9957 32.4977C25.7061 32.8642 27.1721 34.3303 27.4165 36.1629C27.5386 37.1402 27.2943 38.1176 26.8056 38.9728C26.4391 39.5837 26.8056 40.4389 27.5386 40.4389H37.8011C39.878 40.4389 41.7106 38.7285 41.7106 36.5294V27.733C41.7106 27 40.8554 26.5113 40.2445 27C39.3893 27.4887 38.4119 27.733 37.4346 27.6108C34.1359 27.2443 32.4255 23.3348 34.5024 20.647C35.8463 19.0588 38.2898 18.5701 40.1223 19.6697C40.7332 20.0362 41.5884 19.6696 41.5884 18.9366V13.0724C41.5884 10.8733 39.878 9.16286 37.8011 9.16286ZM39.7558 17.4706C37.4346 16.7375 34.7468 17.4706 33.1586 19.4253C30.1042 23.2126 32.4255 28.9547 37.3124 29.4434C38.1676 29.5656 39.0228 29.4434 39.878 29.1991V36.5294C39.878 37.6289 39.0228 38.6063 37.8011 38.6063H29.0047C29.249 37.7511 29.3712 36.8959 29.249 35.9185C28.8825 33.3529 26.9278 31.1538 24.3622 30.6651C20.4527 29.9321 17.0319 32.8642 17.0319 36.6516C17.0319 37.2624 17.154 37.8733 17.2762 38.4841H12.878C11.7785 38.4841 10.8011 37.6289 10.8011 36.4072V27.6108C10.8011 26.8778 9.94588 26.5113 9.33502 26.8778C8.47982 27.3665 7.50244 27.6108 6.52507 27.4887C4.69249 27.2443 3.10425 25.9004 2.73774 24.0678C1.88253 20.2805 6.15855 17.4706 9.21285 19.5475C9.82371 19.914 10.6789 19.5475 10.6789 18.8144V12.9502C10.8011 11.9728 11.7785 10.9954 12.878 10.9954H18.7423C19.4753 10.9954 19.964 10.1402 19.4753 9.52938C18.9866 8.67417 18.7423 7.6968 18.8644 6.71942C19.1088 4.88684 20.4527 3.29861 22.2852 2.93209C24.973 2.56558 27.4165 4.6425 27.4165 7.33028C27.4165 8.18549 27.1721 8.91852 26.8056 9.65155C26.4391 10.2624 26.8056 11.1176 27.5386 11.1176H37.8011C38.9006 11.1176 39.878 11.9728 39.878 13.1945V17.4706H39.7558Z" fill="#7AE99D" stroke="#7AE99D" stroke-width="0.9"/>
</g>
<defs>
<clipPath id="clip0_660_422">
<rect width="41.5385" height="41.5385" fill="white" transform="translate(0.538574)"/>
</clipPath>
</defs>
</svg>
