<svg width="25" height="24" viewBox="0 0 25 24" fill="none" xmlns="http://www.w3.org/2000/svg">
<rect x="0.5" width="24" height="24" rx="4" fill="#DFE5EC"/>
<path d="M20.4176 10.8533C20.3996 10.7195 20.3425 10.5939 20.2533 10.4925C20.1642 10.391 20.047 10.3182 19.9166 10.2831L18.8252 9.98067C18.7952 9.9734 18.7675 9.95844 18.745 9.93728C18.7224 9.91611 18.7058 9.88945 18.6966 9.85992C18.6105 9.61128 18.5097 9.368 18.3946 9.13137C18.3801 9.10421 18.373 9.07372 18.374 9.04294C18.3749 9.01215 18.384 8.98217 18.4001 8.95597L18.9587 7.96932C19.0254 7.85227 19.0563 7.71822 19.0475 7.58378C19.0387 7.44935 18.9907 7.32045 18.9093 7.21306C18.4487 6.59733 17.9022 6.05078 17.2865 5.59007C17.1792 5.50831 17.0501 5.46012 16.9154 5.45157C16.7808 5.44301 16.6466 5.47448 16.5298 5.542L15.545 6.09958C15.5186 6.11563 15.4885 6.12461 15.4576 6.12565C15.4268 6.12669 15.3962 6.11976 15.3687 6.10551C15.1318 5.98954 14.8879 5.88831 14.6385 5.80238C14.6094 5.79337 14.5831 5.77691 14.5623 5.75463C14.5415 5.73235 14.5268 5.70502 14.5198 5.67535L14.2164 4.58333C14.1816 4.45294 14.109 4.33576 14.0077 4.24652C13.9065 4.15728 13.7811 4.09996 13.6474 4.08176C12.8862 3.97275 12.1133 3.97275 11.3521 4.08176C11.2186 4.10025 11.0935 4.1576 10.9923 4.24666C10.8912 4.33573 10.8184 4.45258 10.7832 4.58268L10.4806 5.67494C10.4734 5.70491 10.4584 5.73247 10.4373 5.75487C10.4161 5.77727 10.3894 5.79374 10.3599 5.80263C10.1111 5.88876 9.86774 5.98983 9.63114 6.1053C9.60396 6.11961 9.57354 6.12666 9.54283 6.12574C9.51212 6.12483 9.48218 6.11599 9.45589 6.10008L8.46996 5.54238C8.35315 5.47477 8.21894 5.44321 8.08424 5.45169C7.94953 5.46017 7.82035 5.50831 7.71293 5.59004C7.09734 6.05113 6.55074 6.59777 6.08969 7.21341C6.00821 7.32091 5.96023 7.45005 5.95175 7.58468C5.94326 7.7193 5.97466 7.85344 6.042 7.97032L6.59938 8.95625C6.61548 8.98238 6.62452 9.01225 6.62561 9.04292C6.62671 9.0736 6.61982 9.10403 6.60563 9.13125C6.48967 9.36809 6.38836 9.61182 6.30225 9.86107C6.29324 9.89037 6.27672 9.9168 6.25432 9.93774C6.23192 9.95867 6.20444 9.97337 6.1746 9.98039L5.0822 10.2832C4.95208 10.3186 4.83526 10.3914 4.74627 10.4927C4.65728 10.5941 4.60007 10.7193 4.58176 10.8529C4.47275 11.6141 4.47275 12.3869 4.58176 13.1481C4.59997 13.2816 4.65722 13.4067 4.7463 13.5078C4.83538 13.6089 4.95234 13.6813 5.08248 13.7162L6.17432 14.0197C6.20436 14.0268 6.23201 14.0417 6.25449 14.0629C6.27698 14.0841 6.29351 14.1108 6.30244 14.1404C6.38827 14.3887 6.48923 14.6316 6.60475 14.8677C6.61923 14.8951 6.62639 14.9257 6.62553 14.9566C6.62467 14.9876 6.61582 15.0178 6.59985 15.0443L6.04207 16.03C5.97455 16.1468 5.94308 16.2809 5.95161 16.4155C5.96014 16.5501 6.00829 16.6792 6.09 16.7865C6.5506 17.4026 7.09731 17.9492 7.71337 18.4098C7.82071 18.4912 7.94964 18.5392 8.08408 18.5478C8.21852 18.5565 8.35253 18.5253 8.4694 18.4583L9.45527 17.9007C9.48165 17.8846 9.51172 17.8757 9.54257 17.8746C9.57343 17.8736 9.60403 17.8805 9.63142 17.8948C9.86775 18.0101 10.1109 18.1109 10.3595 18.1966C10.3891 18.2057 10.4157 18.2223 10.4369 18.2448C10.4582 18.2672 10.4732 18.2948 10.4806 18.3248L10.7833 19.4169C10.8183 19.5472 10.891 19.6643 10.9923 19.7534C11.0936 19.8425 11.219 19.8996 11.3527 19.9176C12.1135 20.0275 12.8862 20.0275 13.647 19.9176C13.7809 19.8999 13.9064 19.8428 14.0078 19.7537C14.1091 19.6645 14.1817 19.5472 14.2162 19.4167L14.5197 18.3252C14.5268 18.2953 14.5416 18.2677 14.5626 18.2452C14.5835 18.2227 14.6099 18.206 14.6392 18.1967C14.888 18.1113 15.1313 18.0106 15.3677 17.8952C15.395 17.8807 15.4257 17.8735 15.4567 17.8744C15.4876 17.8753 15.5178 17.8841 15.5443 17.9001L16.5309 18.4586C16.6478 18.5255 16.7817 18.5564 16.916 18.5477C17.0503 18.5389 17.1791 18.4908 17.2863 18.4094C17.9024 17.9492 18.449 17.4026 18.9093 16.7865C18.9909 16.6791 19.0391 16.5501 19.0478 16.4155C19.0565 16.2809 19.0253 16.1467 18.9582 16.0297L18.4 15.0438C18.3839 15.0177 18.3749 14.9878 18.374 14.957C18.3731 14.9263 18.3802 14.8959 18.3947 14.8688C18.5101 14.6324 18.611 14.3892 18.6967 14.1404C18.7058 14.1109 18.7224 14.0843 18.7449 14.0631C18.7674 14.0419 18.795 14.027 18.825 14.0197L19.9166 13.7162C20.047 13.6817 20.1642 13.6092 20.2534 13.508C20.3426 13.4067 20.3997 13.2813 20.4176 13.1476C20.5275 12.3868 20.5275 11.6142 20.4176 10.8533ZM19.9182 13.0763C19.9139 13.1127 19.8986 13.1469 19.8744 13.1744C19.8501 13.2019 19.818 13.2213 19.7824 13.23L19.7817 13.2302L18.6894 13.5338C18.5809 13.5634 18.4814 13.6191 18.3995 13.6961C18.3177 13.7731 18.256 13.8691 18.2199 13.9756C18.141 14.2048 18.0481 14.429 17.9418 14.6469C17.8914 14.7478 17.8668 14.8596 17.8702 14.9723C17.8736 15.085 17.9049 15.1952 17.9613 15.2928L18.5187 16.2774C18.5377 16.3092 18.5466 16.346 18.5443 16.383C18.5419 16.4199 18.5284 16.4553 18.5055 16.4844C18.0741 17.062 17.5617 17.5744 16.9841 18.0057C16.9552 18.0285 16.9201 18.0419 16.8834 18.0443C16.8467 18.0468 16.8101 18.038 16.7785 18.0193L15.7921 17.4609C15.6943 17.4052 15.5844 17.3743 15.4719 17.371C15.3594 17.3677 15.2478 17.392 15.1469 17.4418C14.9287 17.5484 14.704 17.6414 14.4742 17.7203C14.368 17.7566 14.2723 17.8184 14.1955 17.9003C14.1187 17.9822 14.0632 18.0817 14.0338 18.19L13.73 19.2829C13.7212 19.3186 13.7017 19.3507 13.6741 19.3749C13.6466 19.3992 13.6122 19.4144 13.5757 19.4185C12.8622 19.5215 12.1376 19.5215 11.4241 19.4185C11.3875 19.4142 11.3531 19.3988 11.3255 19.3744C11.2979 19.3501 11.2783 19.3179 11.2694 19.2821L10.9666 18.1898C10.937 18.0813 10.8813 17.9818 10.8043 17.8999C10.7272 17.8181 10.6313 17.7563 10.5249 17.7202C10.2952 17.6411 10.0706 17.5479 9.85233 17.4413C9.75142 17.3917 9.63991 17.3677 9.52754 17.3712C9.41517 17.3747 9.30537 17.4056 9.20774 17.4614L8.22165 18.0191C8.18988 18.038 8.15316 18.0468 8.1163 18.0444C8.07944 18.0419 8.04418 18.0284 8.01515 18.0056C7.43778 17.5739 6.92542 17.0615 6.49378 16.4841C6.47108 16.4551 6.45772 16.4199 6.45549 16.3832C6.45326 16.3465 6.46225 16.3099 6.48128 16.2785L7.03969 15.2921C7.09537 15.1943 7.12622 15.0843 7.12954 14.9719C7.13287 14.8594 7.10856 14.7478 7.05875 14.6469C6.95228 14.4294 6.85921 14.2057 6.78006 13.9769C6.74437 13.8698 6.6827 13.7733 6.60056 13.696C6.51842 13.6187 6.41838 13.5629 6.30941 13.5338L5.21682 13.23C5.18125 13.2211 5.14922 13.2016 5.12496 13.1741C5.10071 13.1465 5.08537 13.1123 5.08098 13.0759C4.97887 12.3626 4.97887 11.6384 5.08098 10.9252C5.08537 10.8884 5.10076 10.8539 5.12511 10.8261C5.14947 10.7983 5.18167 10.7785 5.21748 10.7692L6.30941 10.4666C6.41815 10.4375 6.51799 10.3819 6.6 10.3048C6.68201 10.2277 6.74364 10.1314 6.77938 10.0247C6.85879 9.79501 6.95221 9.57041 7.05912 9.35216C7.10884 9.25127 7.13293 9.13969 7.12929 9.02727C7.12564 8.91486 7.09436 8.80507 7.03822 8.70762L6.4811 7.72185C6.46175 7.69028 6.45258 7.65352 6.45481 7.61655C6.45705 7.57959 6.47059 7.54421 6.4936 7.51519C6.92564 6.93832 7.43782 6.42608 8.01465 5.99398C8.0435 5.97083 8.07879 5.95715 8.11571 5.95482C8.15262 5.95248 8.18936 5.96159 8.2209 5.98092L9.20805 6.53927C9.30556 6.59499 9.41527 6.62589 9.52752 6.62924C9.63978 6.6326 9.75114 6.60831 9.8518 6.55852C10.0699 6.45208 10.2943 6.3589 10.5237 6.27949C10.6305 6.24379 10.7268 6.18226 10.804 6.10037C10.8813 6.01847 10.9371 5.91875 10.9666 5.81007L11.269 4.71799C11.2781 4.68217 11.2978 4.64991 11.3255 4.62546C11.3532 4.601 11.3877 4.58548 11.4244 4.58093C12.1376 4.47886 12.8617 4.47886 13.575 4.58093C13.6117 4.58526 13.6462 4.60067 13.6739 4.62509C13.7016 4.64952 13.7212 4.6818 13.7301 4.71765L14.0337 5.81073C14.063 5.91913 14.1186 6.01864 14.1955 6.10041C14.2725 6.18218 14.3684 6.24369 14.4748 6.27949C14.7048 6.35876 14.9296 6.45217 15.148 6.55918C15.249 6.60876 15.3605 6.63285 15.4729 6.62935C15.5853 6.62585 15.6951 6.59485 15.7927 6.53908L16.7781 5.98101C16.8096 5.96168 16.8462 5.95252 16.8831 5.95481C16.9199 5.95709 16.9552 5.97069 16.984 5.99376C17.561 6.42552 18.0732 6.93771 18.505 7.51472C18.5282 7.54371 18.5419 7.57908 18.5444 7.6161C18.5469 7.65311 18.5381 7.69001 18.519 7.72185L17.9613 8.70709C17.9048 8.80465 17.8735 8.91468 17.87 9.02734C17.8665 9.13999 17.891 9.25175 17.9412 9.35263C18.0474 9.57094 18.1404 9.79538 18.2198 10.0248C18.2559 10.1313 18.3177 10.2273 18.3997 10.3044C18.4816 10.3814 18.5813 10.4371 18.6899 10.4666L19.7812 10.7691C19.8172 10.778 19.8495 10.7977 19.874 10.8255C19.8985 10.8533 19.9139 10.8879 19.9183 10.9247C20.0213 11.6382 20.0213 12.3628 19.9182 13.0763ZM12.5 7.73229C10.1463 7.73229 8.23128 9.64682 8.23128 12.0001C8.23128 14.3535 10.1462 16.268 12.5 16.268C14.8538 16.268 16.7679 14.3535 16.7679 12C16.7679 9.64663 14.8534 7.73229 12.5 7.73229ZM12.5 15.7637C11.7557 15.7636 11.0281 15.5429 10.4092 15.1294C9.79035 14.7158 9.308 14.1281 9.02317 13.4404C8.73834 12.7527 8.66381 11.996 8.80902 11.266C8.95423 10.536 9.31265 9.86538 9.83896 9.33905C10.3653 8.81272 11.0358 8.45429 11.7658 8.30906C12.4958 8.16384 13.2525 8.23835 13.9402 8.52318C14.6279 8.808 15.2156 9.29035 15.6292 9.90923C16.0427 10.5281 16.2635 11.2557 16.2635 12C16.2623 12.9978 15.8654 13.9544 15.1598 14.6599C14.4543 15.3655 13.4978 15.7624 12.5 15.7636V15.7637Z" fill="#6C757D" stroke="#6C757D" stroke-width="0.426667"/>
</svg>
