<svg width="24" height="24" viewBox="0 0 24 24" fill="none" xmlns="http://www.w3.org/2000/svg">
<rect width="24" height="24" rx="4" fill="#DFE5EC"/>
<g clip-path="url(#clip0_623_186)">
<path fill-rule="evenodd" clip-rule="evenodd" d="M14.6007 9.89018C14.6375 9.9206 14.6679 9.95797 14.6903 10.0002C14.7127 10.0424 14.7265 10.0885 14.7311 10.1361C14.7356 10.1836 14.7307 10.2316 14.7167 10.2773C14.7027 10.3229 14.6798 10.3654 14.6494 10.4022L11.7257 13.9404L11.7247 13.9411C11.6582 14.021 11.5747 14.0851 11.4804 14.1287C11.386 14.1723 11.2831 14.1943 11.1792 14.1931C11.0737 14.1918 10.9699 14.1667 10.8755 14.1196C10.7811 14.0725 10.6986 14.0046 10.6341 13.9211L10.6337 13.9204L9.71811 12.7436C9.68754 12.7061 9.66477 12.6628 9.65115 12.6163C9.63753 12.5699 9.63333 12.5211 9.6388 12.473C9.64426 12.4249 9.65928 12.3784 9.68298 12.3361C9.70667 12.2939 9.73857 12.2568 9.77678 12.2271C9.815 12.1973 9.85877 12.1755 9.90553 12.1629C9.95229 12.1503 10.0011 12.1472 10.0491 12.1537C10.0971 12.1603 10.1433 12.1763 10.185 12.2009C10.2267 12.2255 10.263 12.2582 10.2919 12.2971L11.1879 13.4487L14.0883 9.93891C14.1187 9.90209 14.1561 9.87162 14.1983 9.84924C14.2405 9.82686 14.2867 9.81301 14.3342 9.80849C14.3817 9.80397 14.4297 9.80885 14.4754 9.82287C14.521 9.83688 14.5635 9.85976 14.6003 9.89018H14.6007Z" fill="#6C757D" stroke="#6C757D" stroke-width="0.363636"/>
</g>
<path d="M6.45194 5.69013C8.67316 6.18706 10.8677 5.40916 11.8384 4.87778C11.9238 4.83099 12.0259 4.8308 12.1115 4.87731C13.0902 5.40895 15.3051 6.18794 17.5464 5.68943C17.6946 5.65648 17.8437 5.74806 17.8719 5.90047C18.557 9.60102 18.2957 16.9918 12.0619 19.17C12.0064 19.1894 11.9433 19.1894 11.8878 19.1698C5.70632 16.9915 5.44665 9.60242 6.12578 5.90162C6.15383 5.74877 6.30344 5.65691 6.45194 5.69013Z" stroke="#6C757D" stroke-width="1.06667" stroke-linecap="round"/>
<defs>
<clipPath id="clip0_623_186">
<rect width="5.45455" height="5.09091" fill="white" transform="translate(9.45459 9.45454)"/>
</clipPath>
</defs>
</svg>
