<svg width="44" height="44" viewBox="0 0 44 44" fill="none" xmlns="http://www.w3.org/2000/svg">
<path d="M6 5L22 3L39 5L38.5 21L31 37L22 42L12.5 37L5.5 22L6 5Z" />
<g clip-path="url(#clip0_659_359)">
<path fill-rule="evenodd" clip-rule="evenodd" d="M29.1515 16.198C29.2528 16.2817 29.3366 16.3844 29.3981 16.5005C29.4596 16.6165 29.4977 16.7435 29.5101 16.8743C29.5226 17.005 29.5092 17.1369 29.4706 17.2625C29.4321 17.388 29.3692 17.5048 29.2855 17.606L21.2455 27.336L21.2425 27.338C21.0597 27.5578 20.8303 27.7341 20.5708 27.8539C20.3113 27.9738 20.0283 28.0343 19.7425 28.031C19.4524 28.0275 19.1669 27.9584 18.9073 27.8288C18.6477 27.6993 18.4207 27.5127 18.2435 27.283L18.2425 27.281L15.7245 24.045C15.6404 23.9417 15.5778 23.8227 15.5404 23.6949C15.5029 23.5671 15.4914 23.4331 15.5064 23.3008C15.5214 23.1685 15.5627 23.0405 15.6279 22.9244C15.6931 22.8082 15.7808 22.7063 15.8859 22.6245C15.9909 22.5427 16.1113 22.4827 16.2399 22.4481C16.3685 22.4135 16.5027 22.4049 16.6347 22.4228C16.7666 22.4407 16.8937 22.4848 17.0084 22.5525C17.123 22.6202 17.223 22.7102 17.3025 22.817L19.7665 25.984L27.7425 16.332C27.8261 16.2308 27.9289 16.147 28.0449 16.0854C28.161 16.0239 28.288 15.9858 28.4187 15.9734C28.5495 15.9609 28.6814 15.9744 28.807 16.0129C28.9325 16.0515 29.0493 16.1144 29.1505 16.198H29.1515Z" fill="#7AE99D" stroke="#7AE99D"/>
</g>
<path d="M6.74271 4.6478C12.8511 6.01437 18.886 3.87514 21.5554 2.41384C21.7904 2.28517 22.0711 2.28463 22.3066 2.41254C24.998 3.87456 31.089 6.01678 37.2526 4.64587C37.66 4.55525 38.0701 4.8071 38.1477 5.22623C40.0315 15.4027 39.3131 35.7274 22.1701 41.7176C22.0175 41.7709 21.8438 41.7707 21.6913 41.717C4.69225 35.7266 3.97816 15.4066 5.84578 5.22939C5.92291 4.80906 6.33434 4.55644 6.74271 4.6478Z" stroke="#7AE99D" stroke-width="2.93333" stroke-linecap="round"/>
<defs>
<clipPath id="clip0_659_359">
<rect width="15" height="14" fill="white" transform="translate(15 15)"/>
</clipPath>
</defs>
</svg>
