<svg width="25" height="24" viewBox="0 0 25 24" fill="none" xmlns="http://www.w3.org/2000/svg">
<rect x="0.5" width="24" height="24" rx="4" fill="#DFE5EC"/>
<path d="M7.49442 19.3542C7.65292 19.4507 7.83117 19.5002 8.01217 19.5002C8.09117 19.5002 8.17092 19.4907 8.24967 19.4717C8.50917 19.4087 8.72842 19.2485 8.86692 19.0207L12.5717 12.9382L13.1042 13.6415C13.1517 13.7042 13.2257 13.7405 13.3034 13.7405C13.3102 13.7405 13.3169 13.7405 13.3237 13.7397C13.4089 13.7327 13.4847 13.6827 13.5244 13.6072L14.4417 11.87L16.2977 11.2255C16.3784 11.1977 16.4392 11.1302 16.4589 11.047C16.4787 10.964 16.4544 10.8765 16.3949 10.8152L15.0262 9.40575L14.9869 7.44175C14.9852 7.35625 14.9399 7.27775 14.8669 7.233C14.7939 7.18875 14.7032 7.18475 14.6267 7.22225L12.8632 8.08875L10.9829 7.519C10.9012 7.49375 10.8124 7.51325 10.7477 7.5685C10.6829 7.62425 10.6509 7.709 10.6632 7.7935L10.9422 9.73825L9.81942 11.3505C9.77067 11.4205 9.76092 11.5107 9.79392 11.5895C9.82692 11.6682 9.89792 11.725 9.98192 11.7397L10.8712 11.8937L7.16242 17.9825C6.87592 18.453 7.02517 19.0685 7.49442 19.3542ZM11.4094 9.943C11.4457 9.891 11.4607 9.82725 11.4517 9.76475L11.2144 8.111L12.8132 8.5955C12.8737 8.61375 12.9392 8.60875 12.9959 8.5805L14.4954 7.84375L14.5287 9.514C14.5299 9.5775 14.5552 9.63775 14.5994 9.68325L15.7634 10.8817L14.1852 11.4297C14.1254 11.4505 14.0757 11.4932 14.0462 11.5492L13.2662 13.0265L12.7557 12.3525C12.7532 12.3487 12.7504 12.3455 12.7477 12.342L12.2574 11.6947C12.2192 11.6442 12.1632 11.61 12.1009 11.5992L11.3217 11.4642C11.3167 11.4632 11.3122 11.4622 11.3072 11.4617L10.4547 11.314L11.4094 9.943ZM7.58992 18.2427L11.4014 11.9855L11.9182 12.075L12.2472 12.5095L8.43992 18.7602C8.37067 18.8742 8.26117 18.954 8.13167 18.9855C8.00142 19.0167 7.86817 18.996 7.75442 18.9267C7.52067 18.7845 7.44692 18.4775 7.58992 18.2427Z" fill="#6C757D" stroke="#6C757D" stroke-width="0.3"/>
<path d="M8.45106 5.84599L8.17281 5.08249C8.13681 4.98374 8.04306 4.91824 7.93806 4.91824C7.83281 4.91824 7.73881 4.98449 7.70306 5.08324L7.42706 5.84799C7.26881 6.28674 6.92631 6.63024 6.48781 6.79024L5.72431 7.06849C5.62531 7.10449 5.55981 7.19874 5.55981 7.30374C5.55981 7.40874 5.62606 7.50274 5.72506 7.53824L6.48956 7.81424C6.92856 7.97274 7.27206 8.31499 7.43206 8.75374L7.71031 9.51724C7.74631 9.61599 7.84031 9.68149 7.94506 9.68149C8.05031 9.68149 8.14431 9.61524 8.18006 9.51624L8.45581 8.75199C8.61431 8.31299 8.95656 7.96949 9.39531 7.80949L10.1588 7.53124C10.2578 7.49524 10.3233 7.40099 10.3233 7.29599C10.3233 7.19099 10.2571 7.09699 10.1581 7.06149L9.39356 6.78549C8.95456 6.62699 8.61106 6.28474 8.45106 5.84599ZM9.33981 7.29774L9.22406 7.33999C8.64581 7.55074 8.19431 8.00349 7.98556 8.58224C7.77681 9.16099 7.94381 8.69824 7.94381 8.69824L7.90156 8.58249C7.69081 8.00449 7.23781 7.55299 6.65906 7.34424L6.54306 7.30224L6.65906 7.25999C7.23731 7.04899 7.68856 6.59649 7.89731 6.01774L7.93906 5.90174L7.98131 6.01749C8.19206 6.59549 8.64506 7.04699 9.22381 7.25574L9.33981 7.29774Z" fill="#6C757D" stroke="#6C757D" stroke-width="0.3"/>
<path d="M13.9997 16.703L14.7642 16.979C15.2032 17.1375 15.5467 17.4798 15.7067 17.9185L15.985 18.6823C16.021 18.781 16.1147 18.8465 16.2197 18.8465C16.325 18.8465 16.419 18.7803 16.4547 18.6815L16.7307 17.917C16.8892 17.4778 17.2315 17.1343 17.67 16.9743L18.4335 16.696C18.5325 16.66 18.598 16.5658 18.598 16.4608C18.598 16.3558 18.5317 16.2618 18.4327 16.2263L17.6682 15.9503C17.2292 15.7918 16.8857 15.4495 16.7257 15.0108L16.4475 14.2473C16.4115 14.1485 16.3177 14.083 16.2127 14.083H16.2125C16.1072 14.083 16.0135 14.1493 15.9777 14.248L15.7017 15.0128C15.5432 15.4518 15.201 15.7953 14.7625 15.955L13.999 16.2333C13.9 16.2693 13.8345 16.3635 13.8345 16.4685C13.8345 16.5735 13.9007 16.6675 13.9997 16.703ZM14.9337 16.4245C15.5117 16.214 15.9632 15.7613 16.1722 15.1823L16.214 15.0663L16.2562 15.182C16.467 15.76 16.9197 16.2115 17.4987 16.4203L17.6147 16.4623L17.4987 16.5045C16.9205 16.7153 16.469 17.168 16.2602 17.747L16.2185 17.8633L16.1762 17.747C15.9655 17.169 15.5127 16.7175 14.9337 16.5088L14.8177 16.4668L14.9337 16.4245Z" fill="#6C757D" stroke="#6C757D" stroke-width="0.3"/>
</svg>
